<?xml version="1.0" standalone="no"?>
<!DOCTYPE svg PUBLIC "-//W3C//DTD SVG 20010904//EN"
 "http://www.w3.org/TR/2001/REC-SVG-20010904/DTD/svg10.dtd">
<svg version="1.0" xmlns="http://www.w3.org/2000/svg"
 width="100.000000pt" height="100.000000pt" viewBox="0 0 100.000000 100.000000"
 preserveAspectRatio="xMidYMid meet">
<metadata>
Created by potrace 1.14, written by Peter Selinger 2001-2017
</metadata>
<g transform="translate(0.000000,100.000000) scale(0.100000,-0.100000)"
fill="#000000" stroke="none">
<path d="M384 984 c-47 -14 -100 -40 -108 -53 -3 -5 20 -7 53 -4 70 6 104 -9
153 -67 38 -43 90 -70 138 -70 l30 0 -28 30 c-16 16 -39 49 -51 74 -46 89
-102 116 -187 90z"/>
<path d="M585 944 c4 -10 14 -37 22 -59 8 -22 21 -47 29 -55 12 -12 14 -11 14
11 0 41 -19 83 -47 103 -26 19 -26 19 -18 0z"/>
<path d="M270 894 c-30 -8 -63 -24 -73 -35 -18 -19 -18 -20 7 -13 17 4 44 -1
76 -15 65 -28 112 -27 146 2 l27 23 -23 22 c-13 12 -31 23 -39 23 -9 1 -27 3
-41 4 -14 2 -50 -4 -80 -11z"/>
<path d="M451 816 c-13 -15 -5 -46 13 -47 6 0 20 -2 31 -4 26 -5 65 5 65 16 0
5 -13 9 -28 9 -16 0 -38 9 -49 20 -17 16 -23 17 -32 6z"/>
<path d="M170 798 c-30 -18 -60 -70 -60 -104 0 -13 6 -11 26 10 30 30 47 32
95 12 43 -17 74 -12 116 20 40 30 42 44 8 44 -14 0 -36 6 -48 14 -36 24 -102
26 -137 4z"/>
<path d="M672 785 c-3 -40 8 -55 53 -73 19 -8 47 -37 75 -78 55 -81 83 -105
45 -39 -43 75 -75 116 -106 134 -16 9 -36 33 -44 54 -8 20 -16 37 -18 37 -2 0
-4 -16 -5 -35z"/>
<path d="M591 757 c-30 -15 -61 -65 -65 -104 -1 -15 4 -50 12 -77 7 -27 11
-59 8 -72 -4 -13 -2 -24 4 -24 21 0 43 53 46 111 2 41 10 71 29 103 24 40 24
45 10 60 -19 19 -14 19 -44 3z"/>
<path d="M391 734 c-29 -37 -27 -75 5 -105 l26 -24 -7 25 c-8 28 -8 26 -6 57
1 17 11 25 42 34 41 13 38 20 -13 33 -21 5 -31 1 -47 -20z"/>
<path d="M313 688 c-19 -25 -40 -93 -37 -123 7 -69 44 -152 44 -98 0 9 12 29
26 44 32 33 33 71 4 126 -12 23 -19 47 -15 53 9 14 -11 13 -22 -2z"/>
<path d="M183 668 c-28 -31 -32 -49 -37 -153 -3 -50 -8 -99 -12 -110 -7 -18
-4 -17 26 6 43 33 67 80 75 149 4 30 13 65 22 78 8 13 12 30 9 38 -8 22 -60
17 -83 -8z"/>
<path d="M475 657 c-9 -22 -12 -52 -8 -89 4 -40 1 -65 -10 -87 -19 -39 -9 -40
26 -3 29 30 33 62 18 138 -4 24 -4 49 1 58 6 10 5 16 -2 16 -6 0 -17 -15 -25
-33z"/>
<path d="M125 654 c-23 -23 -42 -64 -48 -102 -6 -39 10 -105 24 -97 5 4 7 10
5 14 -7 10 20 155 33 180 14 25 9 27 -14 5z"/>
<path d="M667 643 c-14 -13 -6 -30 17 -41 22 -10 24 -8 28 19 4 24 1 29 -17
29 -12 0 -25 -3 -28 -7z"/>
<path d="M386 507 c-21 -28 -42 -64 -47 -79 -9 -31 5 -90 25 -107 10 -9 13 0
13 48 0 47 5 65 25 92 28 38 39 71 29 87 -4 6 -23 -11 -45 -41z"/>
<path d="M715 516 c-14 -14 -33 -30 -42 -35 -16 -9 -16 -10 5 -11 25 0 94 49
86 62 -9 14 -24 9 -49 -16z"/>
<path d="M886 518 c-10 -5 -25 -11 -34 -13 -17 -3 -18 -27 -1 -33 5 -2 9 -19
9 -38 0 -53 -59 -79 -132 -59 -33 9 -39 -11 -7 -23 18 -7 35 -8 90 -3 23 2 62
44 66 72 2 13 12 33 23 44 33 35 23 74 -14 53z"/>
<path d="M554 457 c-47 -40 -59 -77 -48 -151 11 -70 3 -116 -28 -158 l-19 -28
28 11 c116 43 167 145 125 251 -12 29 -22 64 -24 77 l-3 24 -31 -26z"/>
<path d="M252 457 c-25 -30 -22 -83 8 -143 16 -33 26 -67 24 -80 -6 -31 6 -30
33 5 36 46 34 78 -9 126 -17 20 -34 53 -37 72 -5 32 -8 34 -19 20z"/>
<path d="M446 417 c-24 -20 -29 -31 -31 -82 l-2 -59 28 32 c16 18 29 41 29 52
0 33 0 34 16 58 20 30 -1 30 -40 -1z"/>
<path d="M190 390 c-19 -46 -14 -106 10 -138 l22 -27 -9 40 c-4 22 -7 66 -6
98 1 31 0 57 -1 57 -2 0 -9 -13 -16 -30z"/>
<path d="M660 319 c0 -14 38 -49 54 -49 7 0 19 -7 26 -15 15 -18 30 -19 30 -2
0 7 9 20 20 30 11 9 20 21 20 26 0 16 -28 20 -40 5 -16 -18 -47 -18 -82 0 -16
8 -28 11 -28 5z"/>
<path d="M421 250 c-61 -60 -79 -96 -86 -182 l-6 -63 57 60 c31 33 64 76 74
96 20 38 36 139 22 139 -4 0 -31 -23 -61 -50z"/>
<path d="M310 190 c-6 -12 -10 -33 -8 -48 l3 -27 13 23 c18 31 23 60 12 67 -5
3 -14 -4 -20 -15z"/>
</g>
</svg>
