<svg width="1440" height="1389" viewBox="0 0 1440 1389" fill="none" xmlns="http://www.w3.org/2000/svg">
<g clip-path="url(#clip0_1_25)">
<rect width="1440" height="1389" fill="#B3B3B3"/>
<rect width="1440" height="60" transform="translate(0 264)" fill="#272B37"/>
<path d="M572.37 288.5H573.87V299H572.37V288.5ZM566.34 299H564.84V288.5H566.34V299ZM572.505 294.32H566.19V293.015H572.505V294.32ZM581.528 299.12C580.728 299.12 579.983 298.985 579.293 298.715C578.613 298.445 578.023 298.07 577.523 297.59C577.023 297.1 576.633 296.53 576.353 295.88C576.073 295.23 575.933 294.52 575.933 293.75C575.933 292.98 576.073 292.27 576.353 291.62C576.633 290.97 577.023 290.405 577.523 289.925C578.023 289.435 578.613 289.055 579.293 288.785C579.973 288.515 580.718 288.38 581.528 288.38C582.328 288.38 583.063 288.515 583.733 288.785C584.413 289.045 585.003 289.42 585.503 289.91C586.013 290.39 586.403 290.955 586.673 291.605C586.953 292.255 587.093 292.97 587.093 293.75C587.093 294.53 586.953 295.245 586.673 295.895C586.403 296.545 586.013 297.115 585.503 297.605C585.003 298.085 584.413 298.46 583.733 298.73C583.063 298.99 582.328 299.12 581.528 299.12ZM581.528 297.785C582.108 297.785 582.643 297.685 583.133 297.485C583.633 297.285 584.063 297.005 584.423 296.645C584.793 296.275 585.078 295.845 585.278 295.355C585.488 294.865 585.593 294.33 585.593 293.75C585.593 293.17 585.488 292.635 585.278 292.145C585.078 291.655 584.793 291.23 584.423 290.87C584.063 290.5 583.633 290.215 583.133 290.015C582.643 289.815 582.108 289.715 581.528 289.715C580.938 289.715 580.393 289.815 579.893 290.015C579.403 290.215 578.973 290.5 578.603 290.87C578.233 291.23 577.943 291.655 577.733 292.145C577.533 292.635 577.433 293.17 577.433 293.75C577.433 294.33 577.533 294.865 577.733 295.355C577.943 295.845 578.233 296.275 578.603 296.645C578.973 297.005 579.403 297.285 579.893 297.485C580.393 297.685 580.938 297.785 581.528 297.785ZM589.16 299V288.5H590.39L595.1 296.435H594.44L599.09 288.5H600.32L600.335 299H598.895L598.88 290.765H599.225L595.085 297.725H594.395L590.225 290.765H590.6V299H589.16ZM604.626 293.03H610.026V294.305H604.626V293.03ZM604.761 297.695H610.881V299H603.261V288.5H610.671V289.805H604.761V297.695Z" fill="white"/>
<path d="M634.035 299V288.5H638.46C639.58 288.5 640.565 288.72 641.415 289.16C642.275 289.6 642.94 290.215 643.41 291.005C643.89 291.795 644.13 292.71 644.13 293.75C644.13 294.79 643.89 295.705 643.41 296.495C642.94 297.285 642.275 297.9 641.415 298.34C640.565 298.78 639.58 299 638.46 299H634.035ZM635.535 297.695H638.37C639.24 297.695 639.99 297.53 640.62 297.2C641.26 296.87 641.755 296.41 642.105 295.82C642.455 295.22 642.63 294.53 642.63 293.75C642.63 292.96 642.455 292.27 642.105 291.68C641.755 291.09 641.26 290.63 640.62 290.3C639.99 289.97 639.24 289.805 638.37 289.805H635.535V297.695ZM646.203 299V288.5H647.703V299H646.203ZM653.681 299.12C652.881 299.12 652.116 299 651.386 298.76C650.656 298.51 650.081 298.19 649.661 297.8L650.216 296.63C650.616 296.98 651.126 297.27 651.746 297.5C652.366 297.73 653.011 297.845 653.681 297.845C654.291 297.845 654.786 297.775 655.166 297.635C655.546 297.495 655.826 297.305 656.006 297.065C656.186 296.815 656.276 296.535 656.276 296.225C656.276 295.865 656.156 295.575 655.916 295.355C655.686 295.135 655.381 294.96 655.001 294.83C654.631 294.69 654.221 294.57 653.771 294.47C653.321 294.37 652.866 294.255 652.406 294.125C651.956 293.985 651.541 293.81 651.161 293.6C650.791 293.39 650.491 293.11 650.261 292.76C650.031 292.4 649.916 291.94 649.916 291.38C649.916 290.84 650.056 290.345 650.336 289.895C650.626 289.435 651.066 289.07 651.656 288.8C652.256 288.52 653.016 288.38 653.936 288.38C654.546 288.38 655.151 288.46 655.751 288.62C656.351 288.78 656.871 289.01 657.311 289.31L656.816 290.51C656.366 290.21 655.891 289.995 655.391 289.865C654.891 289.725 654.406 289.655 653.936 289.655C653.346 289.655 652.861 289.73 652.481 289.88C652.101 290.03 651.821 290.23 651.641 290.48C651.471 290.73 651.386 291.01 651.386 291.32C651.386 291.69 651.501 291.985 651.731 292.205C651.971 292.425 652.276 292.6 652.646 292.73C653.026 292.86 653.441 292.98 653.891 293.09C654.341 293.19 654.791 293.305 655.241 293.435C655.701 293.565 656.116 293.735 656.486 293.945C656.866 294.155 657.171 294.435 657.401 294.785C657.631 295.135 657.746 295.585 657.746 296.135C657.746 296.665 657.601 297.16 657.311 297.62C657.021 298.07 656.571 298.435 655.961 298.715C655.361 298.985 654.601 299.12 653.681 299.12ZM664.408 299.12C663.608 299.12 662.868 298.99 662.188 298.73C661.518 298.46 660.933 298.085 660.433 297.605C659.943 297.115 659.558 296.545 659.278 295.895C658.998 295.245 658.858 294.53 658.858 293.75C658.858 292.97 658.998 292.255 659.278 291.605C659.558 290.955 659.948 290.39 660.448 289.91C660.948 289.42 661.533 289.045 662.203 288.785C662.883 288.515 663.623 288.38 664.423 288.38C665.233 288.38 665.978 288.52 666.658 288.8C667.348 289.07 667.933 289.475 668.413 290.015L667.438 290.96C667.038 290.54 666.588 290.23 666.088 290.03C665.588 289.82 665.053 289.715 664.483 289.715C663.893 289.715 663.343 289.815 662.833 290.015C662.333 290.215 661.898 290.495 661.528 290.855C661.158 291.215 660.868 291.645 660.658 292.145C660.458 292.635 660.358 293.17 660.358 293.75C660.358 294.33 660.458 294.87 660.658 295.37C660.868 295.86 661.158 296.285 661.528 296.645C661.898 297.005 662.333 297.285 662.833 297.485C663.343 297.685 663.893 297.785 664.483 297.785C665.053 297.785 665.588 297.685 666.088 297.485C666.588 297.275 667.038 296.955 667.438 296.525L668.413 297.47C667.933 298.01 667.348 298.42 666.658 298.7C665.978 298.98 665.228 299.12 664.408 299.12ZM674.848 299.12C674.048 299.12 673.303 298.985 672.613 298.715C671.933 298.445 671.343 298.07 670.843 297.59C670.343 297.1 669.953 296.53 669.673 295.88C669.393 295.23 669.253 294.52 669.253 293.75C669.253 292.98 669.393 292.27 669.673 291.62C669.953 290.97 670.343 290.405 670.843 289.925C671.343 289.435 671.933 289.055 672.613 288.785C673.293 288.515 674.038 288.38 674.848 288.38C675.648 288.38 676.383 288.515 677.053 288.785C677.733 289.045 678.323 289.42 678.823 289.91C679.333 290.39 679.723 290.955 679.993 291.605C680.273 292.255 680.413 292.97 680.413 293.75C680.413 294.53 680.273 295.245 679.993 295.895C679.723 296.545 679.333 297.115 678.823 297.605C678.323 298.085 677.733 298.46 677.053 298.73C676.383 298.99 675.648 299.12 674.848 299.12ZM674.848 297.785C675.428 297.785 675.963 297.685 676.453 297.485C676.953 297.285 677.383 297.005 677.743 296.645C678.113 296.275 678.398 295.845 678.598 295.355C678.808 294.865 678.913 294.33 678.913 293.75C678.913 293.17 678.808 292.635 678.598 292.145C678.398 291.655 678.113 291.23 677.743 290.87C677.383 290.5 676.953 290.215 676.453 290.015C675.963 289.815 675.428 289.715 674.848 289.715C674.258 289.715 673.713 289.815 673.213 290.015C672.723 290.215 672.293 290.5 671.923 290.87C671.553 291.23 671.263 291.655 671.053 292.145C670.853 292.635 670.753 293.17 670.753 293.75C670.753 294.33 670.853 294.865 671.053 295.355C671.263 295.845 671.553 296.275 671.923 296.645C672.293 297.005 672.723 297.285 673.213 297.485C673.713 297.685 674.258 297.785 674.848 297.785ZM685.188 299L680.568 288.5H682.188L686.433 298.19H685.503L689.778 288.5H691.278L686.673 299H685.188ZM693.757 293.03H699.157V294.305H693.757V293.03ZM693.892 297.695H700.012V299H692.392V288.5H699.802V289.805H693.892V297.695ZM702.216 299V288.5H706.311C707.231 288.5 708.016 288.645 708.666 288.935C709.316 289.225 709.816 289.645 710.166 290.195C710.516 290.745 710.691 291.4 710.691 292.16C710.691 292.92 710.516 293.575 710.166 294.125C709.816 294.665 709.316 295.08 708.666 295.37C708.016 295.66 707.231 295.805 706.311 295.805H703.041L703.716 295.115V299H702.216ZM709.236 299L706.566 295.19H708.171L710.871 299H709.236ZM703.716 295.265L703.041 294.53H706.266C707.226 294.53 707.951 294.325 708.441 293.915C708.941 293.495 709.191 292.91 709.191 292.16C709.191 291.41 708.941 290.83 708.441 290.42C707.951 290.01 707.226 289.805 706.266 289.805H703.041L703.716 289.055V295.265Z" fill="white"/>
<path d="M733.77 299V288.5H738.195C739.315 288.5 740.3 288.72 741.15 289.16C742.01 289.6 742.675 290.215 743.145 291.005C743.625 291.795 743.865 292.71 743.865 293.75C743.865 294.79 743.625 295.705 743.145 296.495C742.675 297.285 742.01 297.9 741.15 298.34C740.3 298.78 739.315 299 738.195 299H733.77ZM735.27 297.695H738.105C738.975 297.695 739.725 297.53 740.355 297.2C740.995 296.87 741.49 296.41 741.84 295.82C742.19 295.22 742.365 294.53 742.365 293.75C742.365 292.96 742.19 292.27 741.84 291.68C741.49 291.09 740.995 290.63 740.355 290.3C739.725 289.97 738.975 289.805 738.105 289.805H735.27V297.695ZM745.938 299V288.5H747.438V299H745.938ZM750.356 299V288.5H754.451C755.371 288.5 756.156 288.645 756.806 288.935C757.456 289.225 757.956 289.645 758.306 290.195C758.656 290.745 758.831 291.4 758.831 292.16C758.831 292.92 758.656 293.575 758.306 294.125C757.956 294.665 757.456 295.08 756.806 295.37C756.156 295.66 755.371 295.805 754.451 295.805H751.181L751.856 295.115V299H750.356ZM757.376 299L754.706 295.19H756.311L759.011 299H757.376ZM751.856 295.265L751.181 294.53H754.406C755.366 294.53 756.091 294.325 756.581 293.915C757.081 293.495 757.331 292.91 757.331 292.16C757.331 291.41 757.081 290.83 756.581 290.42C756.091 290.01 755.366 289.805 754.406 289.805H751.181L751.856 289.055V295.265ZM762.394 293.03H767.794V294.305H762.394V293.03ZM762.529 297.695H768.649V299H761.029V288.5H768.439V289.805H762.529V297.695ZM775.534 299.12C774.734 299.12 773.994 298.99 773.314 298.73C772.644 298.46 772.059 298.085 771.559 297.605C771.069 297.115 770.684 296.545 770.404 295.895C770.124 295.245 769.984 294.53 769.984 293.75C769.984 292.97 770.124 292.255 770.404 291.605C770.684 290.955 771.074 290.39 771.574 289.91C772.074 289.42 772.659 289.045 773.329 288.785C774.009 288.515 774.749 288.38 775.549 288.38C776.359 288.38 777.104 288.52 777.784 288.8C778.474 289.07 779.059 289.475 779.539 290.015L778.564 290.96C778.164 290.54 777.714 290.23 777.214 290.03C776.714 289.82 776.179 289.715 775.609 289.715C775.019 289.715 774.469 289.815 773.959 290.015C773.459 290.215 773.024 290.495 772.654 290.855C772.284 291.215 771.994 291.645 771.784 292.145C771.584 292.635 771.484 293.17 771.484 293.75C771.484 294.33 771.584 294.87 771.784 295.37C771.994 295.86 772.284 296.285 772.654 296.645C773.024 297.005 773.459 297.285 773.959 297.485C774.469 297.685 775.019 297.785 775.609 297.785C776.179 297.785 776.714 297.685 777.214 297.485C777.714 297.275 778.164 296.955 778.564 296.525L779.539 297.47C779.059 298.01 778.474 298.42 777.784 298.7C777.104 298.98 776.354 299.12 775.534 299.12ZM783.421 299V289.805H779.821V288.5H788.506V289.805H784.906V299H783.421ZM794.509 299.12C793.709 299.12 792.964 298.985 792.274 298.715C791.594 298.445 791.004 298.07 790.504 297.59C790.004 297.1 789.614 296.53 789.334 295.88C789.054 295.23 788.914 294.52 788.914 293.75C788.914 292.98 789.054 292.27 789.334 291.62C789.614 290.97 790.004 290.405 790.504 289.925C791.004 289.435 791.594 289.055 792.274 288.785C792.954 288.515 793.699 288.38 794.509 288.38C795.309 288.38 796.044 288.515 796.714 288.785C797.394 289.045 797.984 289.42 798.484 289.91C798.994 290.39 799.384 290.955 799.654 291.605C799.934 292.255 800.074 292.97 800.074 293.75C800.074 294.53 799.934 295.245 799.654 295.895C799.384 296.545 798.994 297.115 798.484 297.605C797.984 298.085 797.394 298.46 796.714 298.73C796.044 298.99 795.309 299.12 794.509 299.12ZM794.509 297.785C795.089 297.785 795.624 297.685 796.114 297.485C796.614 297.285 797.044 297.005 797.404 296.645C797.774 296.275 798.059 295.845 798.259 295.355C798.469 294.865 798.574 294.33 798.574 293.75C798.574 293.17 798.469 292.635 798.259 292.145C798.059 291.655 797.774 291.23 797.404 290.87C797.044 290.5 796.614 290.215 796.114 290.015C795.624 289.815 795.089 289.715 794.509 289.715C793.919 289.715 793.374 289.815 792.874 290.015C792.384 290.215 791.954 290.5 791.584 290.87C791.214 291.23 790.924 291.655 790.714 292.145C790.514 292.635 790.414 293.17 790.414 293.75C790.414 294.33 790.514 294.865 790.714 295.355C790.924 295.845 791.214 296.275 791.584 296.645C791.954 297.005 792.384 297.285 792.874 297.485C793.374 297.685 793.919 297.785 794.509 297.785ZM802.141 299V288.5H806.236C807.156 288.5 807.941 288.645 808.591 288.935C809.241 289.225 809.741 289.645 810.091 290.195C810.441 290.745 810.616 291.4 810.616 292.16C810.616 292.92 810.441 293.575 810.091 294.125C809.741 294.665 809.241 295.08 808.591 295.37C807.941 295.66 807.156 295.805 806.236 295.805H802.966L803.641 295.115V299H802.141ZM809.161 299L806.491 295.19H808.096L810.796 299H809.161ZM803.641 295.265L802.966 294.53H806.191C807.151 294.53 807.876 294.325 808.366 293.915C808.866 293.495 809.116 292.91 809.116 292.16C809.116 291.41 808.866 290.83 808.366 290.42C807.876 290.01 807.151 289.805 806.191 289.805H802.966L803.641 289.055V295.265ZM815.203 299V294.98L815.548 295.91L811.033 288.5H812.638L816.433 294.755H815.563L819.373 288.5H820.858L816.358 295.91L816.688 294.98V299H815.203Z" fill="white"/>
<path d="M844.21 299.12C843.59 299.12 843.01 298.99 842.47 298.73C841.93 298.47 841.49 298.095 841.15 297.605L842.02 296.585C842.31 296.985 842.635 297.295 842.995 297.515C843.365 297.725 843.77 297.83 844.21 297.83C845.41 297.83 846.01 297.12 846.01 295.7V289.805H842.215V288.5H847.495V295.625C847.495 296.795 847.215 297.67 846.655 298.25C846.105 298.83 845.29 299.12 844.21 299.12ZM855.066 299.12C854.266 299.12 853.521 298.985 852.831 298.715C852.151 298.445 851.561 298.07 851.061 297.59C850.561 297.1 850.171 296.53 849.891 295.88C849.611 295.23 849.471 294.52 849.471 293.75C849.471 292.98 849.611 292.27 849.891 291.62C850.171 290.97 850.561 290.405 851.061 289.925C851.561 289.435 852.151 289.055 852.831 288.785C853.511 288.515 854.256 288.38 855.066 288.38C855.866 288.38 856.601 288.515 857.271 288.785C857.951 289.045 858.541 289.42 859.041 289.91C859.551 290.39 859.941 290.955 860.211 291.605C860.491 292.255 860.631 292.97 860.631 293.75C860.631 294.53 860.491 295.245 860.211 295.895C859.941 296.545 859.551 297.115 859.041 297.605C858.541 298.085 857.951 298.46 857.271 298.73C856.601 298.99 855.866 299.12 855.066 299.12ZM855.066 297.785C855.646 297.785 856.181 297.685 856.671 297.485C857.171 297.285 857.601 297.005 857.961 296.645C858.331 296.275 858.616 295.845 858.816 295.355C859.026 294.865 859.131 294.33 859.131 293.75C859.131 293.17 859.026 292.635 858.816 292.145C858.616 291.655 858.331 291.23 857.961 290.87C857.601 290.5 857.171 290.215 856.671 290.015C856.181 289.815 855.646 289.715 855.066 289.715C854.476 289.715 853.931 289.815 853.431 290.015C852.941 290.215 852.511 290.5 852.141 290.87C851.771 291.23 851.481 291.655 851.271 292.145C851.071 292.635 850.971 293.17 850.971 293.75C850.971 294.33 851.071 294.865 851.271 295.355C851.481 295.845 851.771 296.275 852.141 296.645C852.511 297.005 852.941 297.285 853.431 297.485C853.931 297.685 854.476 297.785 855.066 297.785ZM862.698 299V288.5H864.198V299H862.698ZM867.117 299V288.5H868.347L875.292 297.125H874.647V288.5H876.147V299H874.917L867.972 290.375H868.617V299H867.117Z" fill="white"/>
<rect width="1440" height="264" fill="#E7E7E7"/>
<path d="M516.795 137.12C516.105 137.12 515.44 137.04 514.8 136.88C514.17 136.71 513.67 136.5 513.3 136.25L514.08 134.57C514.45 134.8 514.885 134.99 515.385 135.14C515.895 135.28 516.395 135.35 516.885 135.35C517.425 135.35 517.805 135.285 518.025 135.155C518.255 135.025 518.37 134.845 518.37 134.615C518.37 134.425 518.28 134.285 518.1 134.195C517.93 134.095 517.7 134.02 517.41 133.97C517.12 133.92 516.8 133.87 516.45 133.82C516.11 133.77 515.765 133.705 515.415 133.625C515.065 133.535 514.745 133.405 514.455 133.235C514.165 133.065 513.93 132.835 513.75 132.545C513.58 132.255 513.495 131.88 513.495 131.42C513.495 130.91 513.64 130.46 513.93 130.07C514.23 129.68 514.66 129.375 515.22 129.155C515.78 128.925 516.45 128.81 517.23 128.81C517.78 128.81 518.34 128.87 518.91 128.99C519.48 129.11 519.955 129.285 520.335 129.515L519.555 131.18C519.165 130.95 518.77 130.795 518.37 130.715C517.98 130.625 517.6 130.58 517.23 130.58C516.71 130.58 516.33 130.65 516.09 130.79C515.85 130.93 515.73 131.11 515.73 131.33C515.73 131.53 515.815 131.68 515.985 131.78C516.165 131.88 516.4 131.96 516.69 132.02C516.98 132.08 517.295 132.135 517.635 132.185C517.985 132.225 518.335 132.29 518.685 132.38C519.035 132.47 519.35 132.6 519.63 132.77C519.92 132.93 520.155 133.155 520.335 133.445C520.515 133.725 520.605 134.095 520.605 134.555C520.605 135.055 520.455 135.5 520.155 135.89C519.855 136.27 519.42 136.57 518.85 136.79C518.29 137.01 517.605 137.12 516.795 137.12ZM525.664 137.12C524.804 137.12 524.039 136.94 523.369 136.58C522.709 136.22 522.184 135.73 521.794 135.11C521.414 134.48 521.224 133.765 521.224 132.965C521.224 132.155 521.414 131.44 521.794 130.82C522.184 130.19 522.709 129.7 523.369 129.35C524.039 128.99 524.804 128.81 525.664 128.81C526.514 128.81 527.274 128.99 527.944 129.35C528.614 129.7 529.139 130.185 529.519 130.805C529.899 131.425 530.089 132.145 530.089 132.965C530.089 133.765 529.899 134.48 529.519 135.11C529.139 135.73 528.614 136.22 527.944 136.58C527.274 136.94 526.514 137.12 525.664 137.12ZM525.664 135.2C526.054 135.2 526.404 135.11 526.714 134.93C527.024 134.75 527.269 134.495 527.449 134.165C527.629 133.825 527.719 133.425 527.719 132.965C527.719 132.495 527.629 132.095 527.449 131.765C527.269 131.435 527.024 131.18 526.714 131C526.404 130.82 526.054 130.73 525.664 130.73C525.274 130.73 524.924 130.82 524.614 131C524.304 131.18 524.054 131.435 523.864 131.765C523.684 132.095 523.594 132.495 523.594 132.965C523.594 133.425 523.684 133.825 523.864 134.165C524.054 134.495 524.304 134.75 524.614 134.93C524.924 135.11 525.274 135.2 525.664 135.2ZM535.328 137.12C534.458 137.12 533.683 136.945 533.003 136.595C532.323 136.235 531.788 135.74 531.398 135.11C531.018 134.48 530.828 133.765 530.828 132.965C530.828 132.155 531.018 131.44 531.398 130.82C531.788 130.19 532.323 129.7 533.003 129.35C533.683 128.99 534.458 128.81 535.328 128.81C536.178 128.81 536.918 128.99 537.548 129.35C538.178 129.7 538.643 130.205 538.943 130.865L537.128 131.84C536.918 131.46 536.653 131.18 536.333 131C536.023 130.82 535.683 130.73 535.313 130.73C534.913 130.73 534.553 130.82 534.233 131C533.913 131.18 533.658 131.435 533.468 131.765C533.288 132.095 533.198 132.495 533.198 132.965C533.198 133.435 533.288 133.835 533.468 134.165C533.658 134.495 533.913 134.75 534.233 134.93C534.553 135.11 534.913 135.2 535.313 135.2C535.683 135.2 536.023 135.115 536.333 134.945C536.653 134.765 536.918 134.48 537.128 134.09L538.943 135.08C538.643 135.73 538.178 136.235 537.548 136.595C536.918 136.945 536.178 137.12 535.328 137.12ZM540.021 137V128.93H542.361V137H540.021ZM541.191 127.805C540.761 127.805 540.411 127.68 540.141 127.43C539.871 127.18 539.736 126.87 539.736 126.5C539.736 126.13 539.871 125.82 540.141 125.57C540.411 125.32 540.761 125.195 541.191 125.195C541.621 125.195 541.971 125.315 542.241 125.555C542.511 125.785 542.646 126.085 542.646 126.455C542.646 126.845 542.511 127.17 542.241 127.43C541.981 127.68 541.631 127.805 541.191 127.805ZM549.258 137V135.425L549.108 135.08V132.26C549.108 131.76 548.953 131.37 548.643 131.09C548.343 130.81 547.878 130.67 547.248 130.67C546.818 130.67 546.393 130.74 545.973 130.88C545.563 131.01 545.213 131.19 544.923 131.42L544.083 129.785C544.523 129.475 545.053 129.235 545.673 129.065C546.293 128.895 546.923 128.81 547.563 128.81C548.793 128.81 549.748 129.1 550.428 129.68C551.108 130.26 551.448 131.165 551.448 132.395V137H549.258ZM546.798 137.12C546.168 137.12 545.628 137.015 545.178 136.805C544.728 136.585 544.383 136.29 544.143 135.92C543.903 135.55 543.783 135.135 543.783 134.675C543.783 134.195 543.898 133.775 544.128 133.415C544.368 133.055 544.743 132.775 545.253 132.575C545.763 132.365 546.428 132.26 547.248 132.26H549.393V133.625H547.503C546.953 133.625 546.573 133.715 546.363 133.895C546.163 134.075 546.063 134.3 546.063 134.57C546.063 134.87 546.178 135.11 546.408 135.29C546.648 135.46 546.973 135.545 547.383 135.545C547.773 135.545 548.123 135.455 548.433 135.275C548.743 135.085 548.968 134.81 549.108 134.45L549.468 135.53C549.298 136.05 548.988 136.445 548.538 136.715C548.088 136.985 547.508 137.12 546.798 137.12ZM553.341 137V125.87H555.681V137H553.341ZM562.776 137V127.4L563.826 128.45H560.676V126.5H565.206V137H562.776Z" fill="black"/>
<path d="M1352.32 137.09C1351.73 137.09 1351.18 136.96 1350.66 136.7C1350.15 136.44 1349.74 136.07 1349.43 135.59L1350.07 134.84C1350.36 135.26 1350.7 135.58 1351.08 135.8C1351.46 136.02 1351.88 136.13 1352.34 136.13C1353.64 136.13 1354.29 135.36 1354.29 133.82V127.46H1350.45V126.5H1355.38V133.775C1355.38 134.885 1355.12 135.715 1354.6 136.265C1354.09 136.815 1353.33 137.09 1352.32 137.09ZM1363.08 137.09C1362.29 137.09 1361.55 136.96 1360.87 136.7C1360.2 136.43 1359.62 136.055 1359.12 135.575C1358.63 135.085 1358.24 134.52 1357.96 133.88C1357.69 133.23 1357.56 132.52 1357.56 131.75C1357.56 130.98 1357.69 130.275 1357.96 129.635C1358.24 128.985 1358.63 128.42 1359.12 127.94C1359.62 127.45 1360.2 127.075 1360.87 126.815C1361.54 126.545 1362.28 126.41 1363.08 126.41C1363.87 126.41 1364.6 126.545 1365.27 126.815C1365.94 127.075 1366.52 127.445 1367.01 127.925C1367.51 128.405 1367.89 128.97 1368.16 129.62C1368.44 130.27 1368.58 130.98 1368.58 131.75C1368.58 132.52 1368.44 133.23 1368.16 133.88C1367.89 134.53 1367.51 135.095 1367.01 135.575C1366.52 136.055 1365.94 136.43 1365.27 136.7C1364.6 136.96 1363.87 137.09 1363.08 137.09ZM1363.08 136.1C1363.71 136.1 1364.29 135.995 1364.82 135.785C1365.36 135.565 1365.82 135.26 1366.21 134.87C1366.61 134.47 1366.92 134.01 1367.14 133.49C1367.36 132.96 1367.47 132.38 1367.47 131.75C1367.47 131.12 1367.36 130.545 1367.14 130.025C1366.92 129.495 1366.61 129.035 1366.21 128.645C1365.82 128.245 1365.36 127.94 1364.82 127.73C1364.29 127.51 1363.71 127.4 1363.08 127.4C1362.45 127.4 1361.86 127.51 1361.32 127.73C1360.78 127.94 1360.31 128.245 1359.91 128.645C1359.52 129.035 1359.21 129.495 1358.98 130.025C1358.76 130.545 1358.65 131.12 1358.65 131.75C1358.65 132.37 1358.76 132.945 1358.98 133.475C1359.21 134.005 1359.52 134.47 1359.91 134.87C1360.31 135.26 1360.78 135.565 1361.32 135.785C1361.86 135.995 1362.45 136.1 1363.08 136.1ZM1370.85 137V126.5H1371.96V137H1370.85ZM1375.15 137V126.5H1376.06L1383.31 135.62H1382.83V126.5H1383.92V137H1383.01L1375.78 127.88H1376.26V137H1375.15ZM1395.06 137.09C1393.72 137.09 1392.66 136.705 1391.89 135.935C1391.12 135.165 1390.74 134.025 1390.74 132.515V126.5H1391.85V132.47C1391.85 133.71 1392.13 134.625 1392.69 135.215C1393.25 135.805 1394.04 136.1 1395.06 136.1C1396.09 136.1 1396.88 135.805 1397.44 135.215C1398 134.625 1398.28 133.71 1398.28 132.47V126.5H1399.36V132.515C1399.36 134.025 1398.98 135.165 1398.21 135.935C1397.45 136.705 1396.4 137.09 1395.06 137.09ZM1405.38 137.09C1404.6 137.09 1403.85 136.965 1403.13 136.715C1402.42 136.455 1401.87 136.125 1401.48 135.725L1401.91 134.87C1402.28 135.23 1402.78 135.535 1403.4 135.785C1404.03 136.025 1404.69 136.145 1405.38 136.145C1406.04 136.145 1406.57 136.065 1406.98 135.905C1407.4 135.735 1407.71 135.51 1407.9 135.23C1408.1 134.95 1408.2 134.64 1408.2 134.3C1408.2 133.89 1408.08 133.56 1407.84 133.31C1407.61 133.06 1407.3 132.865 1406.92 132.725C1406.54 132.575 1406.12 132.445 1405.66 132.335C1405.2 132.225 1404.74 132.11 1404.28 131.99C1403.82 131.86 1403.4 131.69 1403.01 131.48C1402.63 131.27 1402.32 130.995 1402.08 130.655C1401.85 130.305 1401.73 129.85 1401.73 129.29C1401.73 128.77 1401.87 128.295 1402.14 127.865C1402.42 127.425 1402.84 127.075 1403.41 126.815C1403.98 126.545 1404.71 126.41 1405.6 126.41C1406.19 126.41 1406.78 126.495 1407.36 126.665C1407.94 126.825 1408.44 127.05 1408.86 127.34L1408.48 128.225C1408.03 127.925 1407.55 127.705 1407.04 127.565C1406.54 127.425 1406.06 127.355 1405.59 127.355C1404.96 127.355 1404.44 127.44 1404.03 127.61C1403.62 127.78 1403.31 128.01 1403.11 128.3C1402.92 128.58 1402.83 128.9 1402.83 129.26C1402.83 129.67 1402.94 130 1403.17 130.25C1403.41 130.5 1403.72 130.695 1404.1 130.835C1404.49 130.975 1404.92 131.1 1405.38 131.21C1405.84 131.32 1406.29 131.44 1406.74 131.57C1407.2 131.7 1407.62 131.87 1408 132.08C1408.39 132.28 1408.7 132.55 1408.93 132.89C1409.17 133.23 1409.29 133.675 1409.29 134.225C1409.29 134.735 1409.15 135.21 1408.87 135.65C1408.59 136.08 1408.16 136.43 1407.58 136.7C1407.01 136.96 1406.28 137.09 1405.38 137.09Z" fill="black" fill-opacity="0.8"/>
<path d="M679.795 137.12C679.105 137.12 678.44 137.04 677.8 136.88C677.17 136.71 676.67 136.5 676.3 136.25L677.08 134.57C677.45 134.8 677.885 134.99 678.385 135.14C678.895 135.28 679.395 135.35 679.885 135.35C680.425 135.35 680.805 135.285 681.025 135.155C681.255 135.025 681.37 134.845 681.37 134.615C681.37 134.425 681.28 134.285 681.1 134.195C680.93 134.095 680.7 134.02 680.41 133.97C680.12 133.92 679.8 133.87 679.45 133.82C679.11 133.77 678.765 133.705 678.415 133.625C678.065 133.535 677.745 133.405 677.455 133.235C677.165 133.065 676.93 132.835 676.75 132.545C676.58 132.255 676.495 131.88 676.495 131.42C676.495 130.91 676.64 130.46 676.93 130.07C677.23 129.68 677.66 129.375 678.22 129.155C678.78 128.925 679.45 128.81 680.23 128.81C680.78 128.81 681.34 128.87 681.91 128.99C682.48 129.11 682.955 129.285 683.335 129.515L682.555 131.18C682.165 130.95 681.77 130.795 681.37 130.715C680.98 130.625 680.6 130.58 680.23 130.58C679.71 130.58 679.33 130.65 679.09 130.79C678.85 130.93 678.73 131.11 678.73 131.33C678.73 131.53 678.815 131.68 678.985 131.78C679.165 131.88 679.4 131.96 679.69 132.02C679.98 132.08 680.295 132.135 680.635 132.185C680.985 132.225 681.335 132.29 681.685 132.38C682.035 132.47 682.35 132.6 682.63 132.77C682.92 132.93 683.155 133.155 683.335 133.445C683.515 133.725 683.605 134.095 683.605 134.555C683.605 135.055 683.455 135.5 683.155 135.89C682.855 136.27 682.42 136.57 681.85 136.79C681.29 137.01 680.605 137.12 679.795 137.12ZM688.664 137.12C687.804 137.12 687.039 136.94 686.369 136.58C685.709 136.22 685.184 135.73 684.794 135.11C684.414 134.48 684.224 133.765 684.224 132.965C684.224 132.155 684.414 131.44 684.794 130.82C685.184 130.19 685.709 129.7 686.369 129.35C687.039 128.99 687.804 128.81 688.664 128.81C689.514 128.81 690.274 128.99 690.944 129.35C691.614 129.7 692.139 130.185 692.519 130.805C692.899 131.425 693.089 132.145 693.089 132.965C693.089 133.765 692.899 134.48 692.519 135.11C692.139 135.73 691.614 136.22 690.944 136.58C690.274 136.94 689.514 137.12 688.664 137.12ZM688.664 135.2C689.054 135.2 689.404 135.11 689.714 134.93C690.024 134.75 690.269 134.495 690.449 134.165C690.629 133.825 690.719 133.425 690.719 132.965C690.719 132.495 690.629 132.095 690.449 131.765C690.269 131.435 690.024 131.18 689.714 131C689.404 130.82 689.054 130.73 688.664 130.73C688.274 130.73 687.924 130.82 687.614 131C687.304 131.18 687.054 131.435 686.864 131.765C686.684 132.095 686.594 132.495 686.594 132.965C686.594 133.425 686.684 133.825 686.864 134.165C687.054 134.495 687.304 134.75 687.614 134.93C687.924 135.11 688.274 135.2 688.664 135.2ZM698.328 137.12C697.458 137.12 696.683 136.945 696.003 136.595C695.323 136.235 694.788 135.74 694.398 135.11C694.018 134.48 693.828 133.765 693.828 132.965C693.828 132.155 694.018 131.44 694.398 130.82C694.788 130.19 695.323 129.7 696.003 129.35C696.683 128.99 697.458 128.81 698.328 128.81C699.178 128.81 699.918 128.99 700.548 129.35C701.178 129.7 701.643 130.205 701.943 130.865L700.128 131.84C699.918 131.46 699.653 131.18 699.333 131C699.023 130.82 698.683 130.73 698.313 130.73C697.913 130.73 697.553 130.82 697.233 131C696.913 131.18 696.658 131.435 696.468 131.765C696.288 132.095 696.198 132.495 696.198 132.965C696.198 133.435 696.288 133.835 696.468 134.165C696.658 134.495 696.913 134.75 697.233 134.93C697.553 135.11 697.913 135.2 698.313 135.2C698.683 135.2 699.023 135.115 699.333 134.945C699.653 134.765 699.918 134.48 700.128 134.09L701.943 135.08C701.643 135.73 701.178 136.235 700.548 136.595C699.918 136.945 699.178 137.12 698.328 137.12ZM703.021 137V128.93H705.361V137H703.021ZM704.191 127.805C703.761 127.805 703.411 127.68 703.141 127.43C702.871 127.18 702.736 126.87 702.736 126.5C702.736 126.13 702.871 125.82 703.141 125.57C703.411 125.32 703.761 125.195 704.191 125.195C704.621 125.195 704.971 125.315 705.241 125.555C705.511 125.785 705.646 126.085 705.646 126.455C705.646 126.845 705.511 127.17 705.241 127.43C704.981 127.68 704.631 127.805 704.191 127.805ZM712.258 137V135.425L712.108 135.08V132.26C712.108 131.76 711.953 131.37 711.643 131.09C711.343 130.81 710.878 130.67 710.248 130.67C709.818 130.67 709.393 130.74 708.973 130.88C708.563 131.01 708.213 131.19 707.923 131.42L707.083 129.785C707.523 129.475 708.053 129.235 708.673 129.065C709.293 128.895 709.923 128.81 710.563 128.81C711.793 128.81 712.748 129.1 713.428 129.68C714.108 130.26 714.448 131.165 714.448 132.395V137H712.258ZM709.798 137.12C709.168 137.12 708.628 137.015 708.178 136.805C707.728 136.585 707.383 136.29 707.143 135.92C706.903 135.55 706.783 135.135 706.783 134.675C706.783 134.195 706.898 133.775 707.128 133.415C707.368 133.055 707.743 132.775 708.253 132.575C708.763 132.365 709.428 132.26 710.248 132.26H712.393V133.625H710.503C709.953 133.625 709.573 133.715 709.363 133.895C709.163 134.075 709.063 134.3 709.063 134.57C709.063 134.87 709.178 135.11 709.408 135.29C709.648 135.46 709.973 135.545 710.383 135.545C710.773 135.545 711.123 135.455 711.433 135.275C711.743 135.085 711.968 134.81 712.108 134.45L712.468 135.53C712.298 136.05 711.988 136.445 711.538 136.715C711.088 136.985 710.508 137.12 709.798 137.12ZM716.341 137V125.87H718.681V137H716.341ZM724.066 137V135.425L728.116 131.6C728.436 131.31 728.671 131.05 728.821 130.82C728.971 130.59 729.071 130.38 729.121 130.19C729.181 130 729.211 129.825 729.211 129.665C729.211 129.245 729.066 128.925 728.776 128.705C728.496 128.475 728.081 128.36 727.531 128.36C727.091 128.36 726.681 128.445 726.301 128.615C725.931 128.785 725.616 129.05 725.356 129.41L723.586 128.27C723.986 127.67 724.546 127.195 725.266 126.845C725.986 126.495 726.816 126.32 727.756 126.32C728.536 126.32 729.216 126.45 729.796 126.71C730.386 126.96 730.841 127.315 731.161 127.775C731.491 128.235 731.656 128.785 731.656 129.425C731.656 129.765 731.611 130.105 731.521 130.445C731.441 130.775 731.271 131.125 731.011 131.495C730.761 131.865 730.391 132.28 729.901 132.74L726.541 135.905L726.076 135.02H732.001V137H724.066Z" fill="black"/>
<path d="M840.795 137.12C840.105 137.12 839.44 137.04 838.8 136.88C838.17 136.71 837.67 136.5 837.3 136.25L838.08 134.57C838.45 134.8 838.885 134.99 839.385 135.14C839.895 135.28 840.395 135.35 840.885 135.35C841.425 135.35 841.805 135.285 842.025 135.155C842.255 135.025 842.37 134.845 842.37 134.615C842.37 134.425 842.28 134.285 842.1 134.195C841.93 134.095 841.7 134.02 841.41 133.97C841.12 133.92 840.8 133.87 840.45 133.82C840.11 133.77 839.765 133.705 839.415 133.625C839.065 133.535 838.745 133.405 838.455 133.235C838.165 133.065 837.93 132.835 837.75 132.545C837.58 132.255 837.495 131.88 837.495 131.42C837.495 130.91 837.64 130.46 837.93 130.07C838.23 129.68 838.66 129.375 839.22 129.155C839.78 128.925 840.45 128.81 841.23 128.81C841.78 128.81 842.34 128.87 842.91 128.99C843.48 129.11 843.955 129.285 844.335 129.515L843.555 131.18C843.165 130.95 842.77 130.795 842.37 130.715C841.98 130.625 841.6 130.58 841.23 130.58C840.71 130.58 840.33 130.65 840.09 130.79C839.85 130.93 839.73 131.11 839.73 131.33C839.73 131.53 839.815 131.68 839.985 131.78C840.165 131.88 840.4 131.96 840.69 132.02C840.98 132.08 841.295 132.135 841.635 132.185C841.985 132.225 842.335 132.29 842.685 132.38C843.035 132.47 843.35 132.6 843.63 132.77C843.92 132.93 844.155 133.155 844.335 133.445C844.515 133.725 844.605 134.095 844.605 134.555C844.605 135.055 844.455 135.5 844.155 135.89C843.855 136.27 843.42 136.57 842.85 136.79C842.29 137.01 841.605 137.12 840.795 137.12ZM849.664 137.12C848.804 137.12 848.039 136.94 847.369 136.58C846.709 136.22 846.184 135.73 845.794 135.11C845.414 134.48 845.224 133.765 845.224 132.965C845.224 132.155 845.414 131.44 845.794 130.82C846.184 130.19 846.709 129.7 847.369 129.35C848.039 128.99 848.804 128.81 849.664 128.81C850.514 128.81 851.274 128.99 851.944 129.35C852.614 129.7 853.139 130.185 853.519 130.805C853.899 131.425 854.089 132.145 854.089 132.965C854.089 133.765 853.899 134.48 853.519 135.11C853.139 135.73 852.614 136.22 851.944 136.58C851.274 136.94 850.514 137.12 849.664 137.12ZM849.664 135.2C850.054 135.2 850.404 135.11 850.714 134.93C851.024 134.75 851.269 134.495 851.449 134.165C851.629 133.825 851.719 133.425 851.719 132.965C851.719 132.495 851.629 132.095 851.449 131.765C851.269 131.435 851.024 131.18 850.714 131C850.404 130.82 850.054 130.73 849.664 130.73C849.274 130.73 848.924 130.82 848.614 131C848.304 131.18 848.054 131.435 847.864 131.765C847.684 132.095 847.594 132.495 847.594 132.965C847.594 133.425 847.684 133.825 847.864 134.165C848.054 134.495 848.304 134.75 848.614 134.93C848.924 135.11 849.274 135.2 849.664 135.2ZM859.328 137.12C858.458 137.12 857.683 136.945 857.003 136.595C856.323 136.235 855.788 135.74 855.398 135.11C855.018 134.48 854.828 133.765 854.828 132.965C854.828 132.155 855.018 131.44 855.398 130.82C855.788 130.19 856.323 129.7 857.003 129.35C857.683 128.99 858.458 128.81 859.328 128.81C860.178 128.81 860.918 128.99 861.548 129.35C862.178 129.7 862.643 130.205 862.943 130.865L861.128 131.84C860.918 131.46 860.653 131.18 860.333 131C860.023 130.82 859.683 130.73 859.313 130.73C858.913 130.73 858.553 130.82 858.233 131C857.913 131.18 857.658 131.435 857.468 131.765C857.288 132.095 857.198 132.495 857.198 132.965C857.198 133.435 857.288 133.835 857.468 134.165C857.658 134.495 857.913 134.75 858.233 134.93C858.553 135.11 858.913 135.2 859.313 135.2C859.683 135.2 860.023 135.115 860.333 134.945C860.653 134.765 860.918 134.48 861.128 134.09L862.943 135.08C862.643 135.73 862.178 136.235 861.548 136.595C860.918 136.945 860.178 137.12 859.328 137.12ZM864.021 137V128.93H866.361V137H864.021ZM865.191 127.805C864.761 127.805 864.411 127.68 864.141 127.43C863.871 127.18 863.736 126.87 863.736 126.5C863.736 126.13 863.871 125.82 864.141 125.57C864.411 125.32 864.761 125.195 865.191 125.195C865.621 125.195 865.971 125.315 866.241 125.555C866.511 125.785 866.646 126.085 866.646 126.455C866.646 126.845 866.511 127.17 866.241 127.43C865.981 127.68 865.631 127.805 865.191 127.805ZM873.258 137V135.425L873.108 135.08V132.26C873.108 131.76 872.953 131.37 872.643 131.09C872.343 130.81 871.878 130.67 871.248 130.67C870.818 130.67 870.393 130.74 869.973 130.88C869.563 131.01 869.213 131.19 868.923 131.42L868.083 129.785C868.523 129.475 869.053 129.235 869.673 129.065C870.293 128.895 870.923 128.81 871.563 128.81C872.793 128.81 873.748 129.1 874.428 129.68C875.108 130.26 875.448 131.165 875.448 132.395V137H873.258ZM870.798 137.12C870.168 137.12 869.628 137.015 869.178 136.805C868.728 136.585 868.383 136.29 868.143 135.92C867.903 135.55 867.783 135.135 867.783 134.675C867.783 134.195 867.898 133.775 868.128 133.415C868.368 133.055 868.743 132.775 869.253 132.575C869.763 132.365 870.428 132.26 871.248 132.26H873.393V133.625H871.503C870.953 133.625 870.573 133.715 870.363 133.895C870.163 134.075 870.063 134.3 870.063 134.57C870.063 134.87 870.178 135.11 870.408 135.29C870.648 135.46 870.973 135.545 871.383 135.545C871.773 135.545 872.123 135.455 872.433 135.275C872.743 135.085 872.968 134.81 873.108 134.45L873.468 135.53C873.298 136.05 872.988 136.445 872.538 136.715C872.088 136.985 871.508 137.12 870.798 137.12ZM877.341 137V125.87H879.681V137H877.341ZM888.561 137.18C887.831 137.18 887.106 137.085 886.386 136.895C885.666 136.695 885.056 136.415 884.556 136.055L885.501 134.195C885.901 134.485 886.366 134.715 886.896 134.885C887.426 135.055 887.961 135.14 888.501 135.14C889.111 135.14 889.591 135.02 889.941 134.78C890.291 134.54 890.466 134.21 890.466 133.79C890.466 133.39 890.311 133.075 890.001 132.845C889.691 132.615 889.191 132.5 888.501 132.5H887.391V130.895L890.316 127.58L890.586 128.45H885.081V126.5H892.431V128.075L889.521 131.39L888.291 130.685H888.996C890.286 130.685 891.261 130.975 891.921 131.555C892.581 132.135 892.911 132.88 892.911 133.79C892.911 134.38 892.756 134.935 892.446 135.455C892.136 135.965 891.661 136.38 891.021 136.7C890.381 137.02 889.561 137.18 888.561 137.18Z" fill="black"/>
<path d="M118.092 151.656C117.751 151.656 117.476 151.552 117.267 151.343C117.078 151.153 116.983 150.888 116.983 150.547V137.121C117.002 135.642 117.353 134.314 118.035 133.139C118.737 131.944 119.676 131.005 120.851 130.323C122.046 129.64 123.383 129.299 124.862 129.299C126.379 129.299 127.735 129.649 128.929 130.351C130.124 131.034 131.063 131.972 131.745 133.167C132.447 134.362 132.798 135.718 132.798 137.235C132.798 138.733 132.457 140.079 131.774 141.274C131.11 142.468 130.2 143.417 129.043 144.118C127.886 144.801 126.578 145.142 125.118 145.142C123.847 145.142 122.691 144.877 121.648 144.346C120.624 143.796 119.799 143.075 119.173 142.184V150.547C119.173 150.888 119.069 151.153 118.86 151.343C118.67 151.552 118.414 151.656 118.092 151.656ZM124.862 143.151C125.962 143.151 126.948 142.895 127.82 142.383C128.692 141.871 129.375 141.169 129.868 140.278C130.38 139.368 130.636 138.353 130.636 137.235C130.636 136.097 130.38 135.082 129.868 134.191C129.375 133.3 128.692 132.598 127.82 132.086C126.948 131.555 125.962 131.29 124.862 131.29C123.781 131.29 122.804 131.555 121.932 132.086C121.06 132.598 120.377 133.3 119.884 134.191C119.391 135.082 119.145 136.097 119.145 137.235C119.145 138.353 119.391 139.368 119.884 140.278C120.377 141.169 121.06 141.871 121.932 142.383C122.804 142.895 123.781 143.151 124.862 143.151ZM137.777 138.657C137.435 138.657 137.16 138.553 136.952 138.344C136.762 138.135 136.667 137.87 136.667 137.548V123.894C136.667 123.553 136.762 123.287 136.952 123.098C137.16 122.889 137.435 122.785 137.777 122.785C138.099 122.785 138.355 122.889 138.545 123.098C138.753 123.287 138.857 123.553 138.857 123.894V137.548C138.857 137.87 138.753 138.135 138.545 138.344C138.355 138.553 138.099 138.657 137.777 138.657ZM150.008 145C149.685 145 149.42 144.896 149.211 144.687C149.003 144.479 148.898 144.223 148.898 143.919V136.524C148.898 135.348 148.671 134.381 148.216 133.622C147.78 132.864 147.173 132.295 146.395 131.916C145.637 131.536 144.774 131.347 143.807 131.347C142.878 131.347 142.034 131.527 141.275 131.887C140.536 132.247 139.948 132.74 139.512 133.366C139.076 133.992 138.857 134.703 138.857 135.5H137.293C137.331 134.305 137.653 133.243 138.26 132.314C138.867 131.366 139.673 130.626 140.678 130.095C141.683 129.545 142.802 129.27 144.034 129.27C145.381 129.27 146.585 129.555 147.647 130.124C148.709 130.673 149.543 131.489 150.15 132.57C150.776 133.651 151.089 134.969 151.089 136.524V143.919C151.089 144.223 150.984 144.479 150.776 144.687C150.567 144.896 150.311 145 150.008 145ZM137.777 145C137.435 145 137.16 144.905 136.952 144.716C136.762 144.507 136.667 144.241 136.667 143.919V130.55C136.667 130.209 136.762 129.943 136.952 129.754C137.16 129.545 137.435 129.441 137.777 129.441C138.099 129.441 138.355 129.545 138.545 129.754C138.753 129.943 138.857 130.209 138.857 130.55V143.919C138.857 144.241 138.753 144.507 138.545 144.716C138.355 144.905 138.099 145 137.777 145ZM162.573 145.142C161.056 145.142 159.7 144.801 158.506 144.118C157.311 143.436 156.372 142.497 155.69 141.302C155.007 140.108 154.666 138.752 154.666 137.235C154.666 135.699 155.007 134.333 155.69 133.139C156.372 131.944 157.311 131.005 158.506 130.323C159.7 129.64 161.056 129.299 162.573 129.299C164.09 129.299 165.437 129.64 166.612 130.323C167.807 131.005 168.746 131.944 169.428 133.139C170.111 134.333 170.462 135.699 170.481 137.235C170.481 138.752 170.13 140.108 169.428 141.302C168.746 142.497 167.807 143.436 166.612 144.118C165.437 144.801 164.09 145.142 162.573 145.142ZM162.573 143.151C163.673 143.151 164.659 142.895 165.531 142.383C166.404 141.871 167.086 141.169 167.579 140.278C168.072 139.387 168.319 138.372 168.319 137.235C168.319 136.097 168.072 135.082 167.579 134.191C167.086 133.281 166.404 132.57 165.531 132.058C164.659 131.546 163.673 131.29 162.573 131.29C161.473 131.29 160.487 131.546 159.615 132.058C158.743 132.57 158.051 133.281 157.539 134.191C157.046 135.082 156.799 136.097 156.799 137.235C156.799 138.372 157.046 139.387 157.539 140.278C158.051 141.169 158.743 141.871 159.615 142.383C160.487 142.895 161.473 143.151 162.573 143.151ZM180.401 145C179.396 145 178.495 144.763 177.699 144.289C176.921 143.815 176.305 143.17 175.85 142.355C175.395 141.52 175.167 140.572 175.167 139.51V125.601C175.167 125.279 175.262 125.013 175.452 124.804C175.66 124.596 175.926 124.492 176.248 124.492C176.57 124.492 176.836 124.596 177.045 124.804C177.253 125.013 177.357 125.279 177.357 125.601V139.51C177.357 140.477 177.642 141.274 178.211 141.9C178.78 142.506 179.51 142.81 180.401 142.81H181.169C181.472 142.81 181.719 142.914 181.909 143.123C182.098 143.331 182.193 143.597 182.193 143.919C182.193 144.241 182.079 144.507 181.852 144.716C181.624 144.905 181.34 145 180.998 145H180.401ZM173.318 131.916C173.034 131.916 172.797 131.83 172.607 131.66C172.418 131.47 172.323 131.242 172.323 130.977C172.323 130.692 172.418 130.465 172.607 130.294C172.797 130.105 173.034 130.01 173.318 130.01H180.572C180.856 130.01 181.093 130.105 181.283 130.294C181.472 130.465 181.567 130.692 181.567 130.977C181.567 131.242 181.472 131.47 181.283 131.66C181.093 131.83 180.856 131.916 180.572 131.916H173.318ZM192.414 145.142C190.897 145.142 189.541 144.801 188.347 144.118C187.152 143.436 186.213 142.497 185.531 141.302C184.848 140.108 184.507 138.752 184.507 137.235C184.507 135.699 184.848 134.333 185.531 133.139C186.213 131.944 187.152 131.005 188.347 130.323C189.541 129.64 190.897 129.299 192.414 129.299C193.931 129.299 195.278 129.64 196.453 130.323C197.648 131.005 198.587 131.944 199.269 133.139C199.952 134.333 200.303 135.699 200.322 137.235C200.322 138.752 199.971 140.108 199.269 141.302C198.587 142.497 197.648 143.436 196.453 144.118C195.278 144.801 193.931 145.142 192.414 145.142ZM192.414 143.151C193.514 143.151 194.5 142.895 195.373 142.383C196.245 141.871 196.928 141.169 197.421 140.278C197.914 139.387 198.16 138.372 198.16 137.235C198.16 136.097 197.914 135.082 197.421 134.191C196.928 133.281 196.245 132.57 195.373 132.058C194.5 131.546 193.514 131.29 192.414 131.29C191.314 131.29 190.328 131.546 189.456 132.058C188.584 132.57 187.892 133.281 187.38 134.191C186.887 135.082 186.64 136.097 186.64 137.235C186.64 138.372 186.887 139.387 187.38 140.278C187.892 141.169 188.584 141.871 189.456 142.383C190.328 142.895 191.314 143.151 192.414 143.151Z" fill="black"/>
<path fill-rule="evenodd" clip-rule="evenodd" d="M95.8464 122.963H80L86.6722 129.635H102.519L95.8464 122.963ZM86.6722 129.635V145.481L80 138.809V122.963L86.6722 129.635Z" fill="#CCCCCC"/>
<path fill-rule="evenodd" clip-rule="evenodd" d="M86.6721 145.481H102.518L95.8463 138.809H80L86.6721 145.481ZM95.8463 138.809V122.963L102.518 129.635V145.481L95.8463 138.809Z" fill="black"/>
<rect y="1159" width="1440" height="230" fill="#D9D9D9"/>
<path d="M244.811 1280.17V1279.09L249.371 1274.69C249.776 1274.3 250.075 1273.97 250.267 1273.68C250.469 1273.38 250.603 1273.11 250.667 1272.86C250.741 1272.61 250.779 1272.36 250.779 1272.13C250.779 1271.55 250.576 1271.1 250.171 1270.77C249.765 1270.44 249.173 1270.27 248.395 1270.27C247.797 1270.27 247.259 1270.37 246.779 1270.57C246.299 1270.77 245.883 1271.07 245.531 1271.49L244.443 1270.54C244.869 1270 245.44 1269.58 246.155 1269.29C246.88 1269 247.675 1268.85 248.539 1268.85C249.317 1268.85 249.995 1268.97 250.571 1269.23C251.147 1269.48 251.589 1269.83 251.899 1270.3C252.219 1270.77 252.379 1271.33 252.379 1271.97C252.379 1272.33 252.331 1272.69 252.235 1273.04C252.139 1273.39 251.957 1273.76 251.691 1274.16C251.424 1274.55 251.04 1275 250.539 1275.49L246.475 1279.41L246.091 1278.78H252.859V1280.17H244.811ZM258.495 1280.3C257.62 1280.3 256.836 1280.08 256.143 1279.63C255.46 1279.18 254.916 1278.53 254.511 1277.68C254.116 1276.82 253.919 1275.79 253.919 1274.57C253.919 1273.36 254.116 1272.32 254.511 1271.47C254.916 1270.62 255.46 1269.97 256.143 1269.52C256.836 1269.07 257.62 1268.85 258.495 1268.85C259.359 1268.85 260.137 1269.07 260.831 1269.52C261.524 1269.97 262.068 1270.62 262.463 1271.47C262.857 1272.32 263.055 1273.36 263.055 1274.57C263.055 1275.79 262.857 1276.82 262.463 1277.68C262.068 1278.53 261.524 1279.18 260.831 1279.63C260.137 1280.08 259.359 1280.3 258.495 1280.3ZM258.495 1278.88C259.081 1278.88 259.593 1278.72 260.031 1278.4C260.479 1278.08 260.825 1277.6 261.071 1276.96C261.327 1276.32 261.455 1275.52 261.455 1274.57C261.455 1273.62 261.327 1272.83 261.071 1272.19C260.825 1271.55 260.479 1271.07 260.031 1270.75C259.593 1270.43 259.081 1270.27 258.495 1270.27C257.908 1270.27 257.391 1270.43 256.943 1270.75C256.495 1271.07 256.143 1271.55 255.887 1272.19C255.641 1272.83 255.519 1273.62 255.519 1274.57C255.519 1275.52 255.641 1276.32 255.887 1276.96C256.143 1277.6 256.495 1278.08 256.943 1278.4C257.391 1278.72 257.908 1278.88 258.495 1278.88ZM264.175 1280.17V1279.09L268.735 1274.69C269.14 1274.3 269.439 1273.97 269.631 1273.68C269.833 1273.38 269.967 1273.11 270.031 1272.86C270.105 1272.61 270.143 1272.36 270.143 1272.13C270.143 1271.55 269.94 1271.1 269.535 1270.77C269.129 1270.44 268.537 1270.27 267.759 1270.27C267.161 1270.27 266.623 1270.37 266.143 1270.57C265.663 1270.77 265.247 1271.07 264.895 1271.49L263.807 1270.54C264.233 1270 264.804 1269.58 265.519 1269.29C266.244 1269 267.039 1268.85 267.903 1268.85C268.681 1268.85 269.359 1268.97 269.935 1269.23C270.511 1269.48 270.953 1269.83 271.263 1270.3C271.583 1270.77 271.743 1271.33 271.743 1271.97C271.743 1272.33 271.695 1272.69 271.599 1273.04C271.503 1273.39 271.321 1273.76 271.055 1274.16C270.788 1274.55 270.404 1275 269.903 1275.49L265.839 1279.41L265.455 1278.78H272.223V1280.17H264.175ZM276.722 1280.3C275.933 1280.3 275.165 1280.18 274.418 1279.93C273.682 1279.69 273.079 1279.36 272.61 1278.94L273.346 1277.68C273.719 1278.03 274.205 1278.32 274.802 1278.54C275.399 1278.77 276.039 1278.88 276.722 1278.88C277.554 1278.88 278.199 1278.7 278.658 1278.35C279.127 1277.99 279.362 1277.5 279.362 1276.89C279.362 1276.31 279.138 1275.84 278.69 1275.49C278.253 1275.12 277.554 1274.94 276.594 1274.94H275.698V1273.82L279.026 1269.73L279.25 1270.37H273.122V1268.97H280.514V1270.06L277.202 1274.14L276.37 1273.65H276.898C278.253 1273.65 279.266 1273.95 279.938 1274.56C280.621 1275.17 280.962 1275.94 280.962 1276.88C280.962 1277.51 280.807 1278.08 280.498 1278.61C280.189 1279.13 279.719 1279.54 279.09 1279.85C278.471 1280.15 277.682 1280.3 276.722 1280.3ZM292.191 1280.3C291.338 1280.3 290.548 1280.16 289.823 1279.89C289.108 1279.6 288.484 1279.2 287.951 1278.69C287.428 1278.16 287.018 1277.56 286.719 1276.86C286.42 1276.17 286.271 1275.41 286.271 1274.57C286.271 1273.74 286.42 1272.98 286.719 1272.29C287.018 1271.59 287.434 1270.99 287.967 1270.48C288.5 1269.96 289.124 1269.56 289.839 1269.28C290.564 1268.99 291.354 1268.85 292.207 1268.85C293.071 1268.85 293.866 1269 294.591 1269.29C295.327 1269.58 295.951 1270.01 296.463 1270.59L295.423 1271.6C294.996 1271.15 294.516 1270.82 293.983 1270.61C293.45 1270.38 292.879 1270.27 292.271 1270.27C291.642 1270.27 291.055 1270.38 290.511 1270.59C289.978 1270.8 289.514 1271.1 289.119 1271.49C288.724 1271.87 288.415 1272.33 288.191 1272.86C287.978 1273.38 287.871 1273.96 287.871 1274.57C287.871 1275.19 287.978 1275.77 288.191 1276.3C288.415 1276.82 288.724 1277.28 289.119 1277.66C289.514 1278.05 289.978 1278.34 290.511 1278.56C291.055 1278.77 291.642 1278.88 292.271 1278.88C292.879 1278.88 293.45 1278.77 293.983 1278.56C294.516 1278.33 294.996 1277.99 295.423 1277.53L296.463 1278.54C295.951 1279.12 295.327 1279.56 294.591 1279.85C293.866 1280.15 293.066 1280.3 292.191 1280.3ZM303.327 1280.3C302.474 1280.3 301.679 1280.16 300.943 1279.87C300.218 1279.58 299.589 1279.18 299.055 1278.67C298.522 1278.15 298.106 1277.54 297.807 1276.85C297.509 1276.15 297.359 1275.4 297.359 1274.57C297.359 1273.75 297.509 1273 297.807 1272.3C298.106 1271.61 298.522 1271.01 299.055 1270.49C299.589 1269.97 300.218 1269.57 300.943 1269.28C301.669 1268.99 302.463 1268.85 303.327 1268.85C304.181 1268.85 304.965 1268.99 305.679 1269.28C306.405 1269.56 307.034 1269.96 307.567 1270.48C308.111 1270.99 308.527 1271.59 308.815 1272.29C309.114 1272.98 309.263 1273.74 309.263 1274.57C309.263 1275.41 309.114 1276.17 308.815 1276.86C308.527 1277.56 308.111 1278.16 307.567 1278.69C307.034 1279.2 306.405 1279.6 305.679 1279.89C304.965 1280.16 304.181 1280.3 303.327 1280.3ZM303.327 1278.88C303.946 1278.88 304.517 1278.77 305.039 1278.56C305.573 1278.34 306.031 1278.05 306.415 1277.66C306.81 1277.27 307.114 1276.81 307.327 1276.29C307.551 1275.76 307.663 1275.19 307.663 1274.57C307.663 1273.96 307.551 1273.38 307.327 1272.86C307.114 1272.34 306.81 1271.89 306.415 1271.5C306.031 1271.11 305.573 1270.8 305.039 1270.59C304.517 1270.38 303.946 1270.27 303.327 1270.27C302.698 1270.27 302.117 1270.38 301.583 1270.59C301.061 1270.8 300.602 1271.11 300.207 1271.5C299.813 1271.89 299.503 1272.34 299.279 1272.86C299.066 1273.38 298.959 1273.96 298.959 1274.57C298.959 1275.19 299.066 1275.76 299.279 1276.29C299.503 1276.81 299.813 1277.27 300.207 1277.66C300.602 1278.05 301.061 1278.34 301.583 1278.56C302.117 1278.77 302.698 1278.88 303.327 1278.88ZM311.469 1280.17V1268.97H312.781L317.805 1277.44H317.101L322.061 1268.97H323.373L323.389 1280.17H321.853L321.837 1271.39H322.205L317.789 1278.81H317.053L312.605 1271.39H313.005V1280.17H311.469ZM326.51 1280.17V1268.97H330.878C331.859 1268.97 332.697 1269.13 333.39 1269.44C334.083 1269.75 334.617 1270.2 334.99 1270.78C335.363 1271.37 335.55 1272.07 335.55 1272.88C335.55 1273.69 335.363 1274.39 334.99 1274.97C334.617 1275.55 334.083 1276 333.39 1276.32C332.697 1276.63 331.859 1276.78 330.878 1276.78H327.39L328.11 1276.03V1280.17H326.51ZM328.11 1276.19L327.39 1275.39H330.83C331.854 1275.39 332.627 1275.17 333.15 1274.73C333.683 1274.3 333.95 1273.68 333.95 1272.88C333.95 1272.08 333.683 1271.46 333.15 1271.02C332.627 1270.58 331.854 1270.37 330.83 1270.37H327.39L328.11 1269.57V1276.19ZM335.402 1280.17L340.474 1268.97H342.058L347.146 1280.17H345.466L340.938 1269.87H341.578L337.05 1280.17H335.402ZM337.562 1277.37L337.994 1276.09H344.298L344.762 1277.37H337.562ZM348.577 1280.17V1268.97H349.889L357.297 1278.17H356.609V1268.97H358.209V1280.17H356.897L349.489 1270.97H350.177V1280.17H348.577ZM364.025 1280.17V1275.89L364.393 1276.88L359.577 1268.97H361.289L365.337 1275.65H364.409L368.473 1268.97H370.057L365.257 1276.88L365.609 1275.89V1280.17H364.025ZM375.498 1280.17V1268.97H376.81L384.218 1278.17H383.53V1268.97H385.13V1280.17H383.818L376.41 1270.97H377.098V1280.17H375.498ZM386.546 1280.17L391.618 1268.97H393.202L398.29 1280.17H396.61L392.082 1269.87H392.722L388.194 1280.17H386.546ZM388.706 1277.37L389.138 1276.09H395.442L395.906 1277.37H388.706ZM399.721 1280.17V1268.97H401.033L406.057 1277.44H405.353L410.313 1268.97H411.625L411.641 1280.17H410.105L410.089 1271.39H410.457L406.041 1278.81H405.305L400.857 1271.39H401.257V1280.17H399.721ZM416.218 1273.81H421.978V1275.17H416.218V1273.81ZM416.362 1278.78H422.89V1280.17H414.762V1268.97H422.666V1270.37H416.362V1278.78ZM428.529 1276.45V1275.12H432.833V1276.45H428.529ZM437.543 1280.17L442.615 1268.97H444.199L449.287 1280.17H447.607L443.079 1269.87H443.719L439.191 1280.17H437.543ZM439.703 1277.37L440.135 1276.09H446.439L446.903 1277.37H439.703ZM455.124 1280.3C453.652 1280.3 452.494 1279.88 451.652 1279.04C450.809 1278.2 450.388 1276.96 450.388 1275.34V1268.97H451.988V1275.28C451.988 1276.53 452.26 1277.44 452.804 1278.01C453.358 1278.59 454.137 1278.88 455.14 1278.88C456.153 1278.88 456.932 1278.59 457.476 1278.01C458.03 1277.44 458.308 1276.53 458.308 1275.28V1268.97H459.86V1275.34C459.86 1276.96 459.438 1278.2 458.596 1279.04C457.764 1279.88 456.606 1280.3 455.124 1280.3ZM464.921 1280.17V1270.37H461.081V1268.97H470.345V1270.37H466.505V1280.17H464.921ZM479.879 1268.97H481.479V1280.17H479.879V1268.97ZM473.447 1280.17H471.847V1268.97H473.447V1280.17ZM480.023 1275.18H473.287V1273.79H480.023V1275.18ZM489.648 1280.3C488.795 1280.3 488 1280.16 487.264 1279.87C486.539 1279.58 485.909 1279.18 485.376 1278.67C484.843 1278.15 484.427 1277.54 484.128 1276.85C483.829 1276.15 483.68 1275.4 483.68 1274.57C483.68 1273.75 483.829 1273 484.128 1272.3C484.427 1271.61 484.843 1271.01 485.376 1270.49C485.909 1269.97 486.539 1269.57 487.264 1269.28C487.989 1268.99 488.784 1268.85 489.648 1268.85C490.501 1268.85 491.285 1268.99 492 1269.28C492.725 1269.56 493.355 1269.96 493.888 1270.48C494.432 1270.99 494.848 1271.59 495.136 1272.29C495.435 1272.98 495.584 1273.74 495.584 1274.57C495.584 1275.41 495.435 1276.17 495.136 1276.86C494.848 1277.56 494.432 1278.16 493.888 1278.69C493.355 1279.2 492.725 1279.6 492 1279.89C491.285 1280.16 490.501 1280.3 489.648 1280.3ZM489.648 1278.88C490.267 1278.88 490.837 1278.77 491.36 1278.56C491.893 1278.34 492.352 1278.05 492.736 1277.66C493.131 1277.27 493.435 1276.81 493.648 1276.29C493.872 1275.76 493.984 1275.19 493.984 1274.57C493.984 1273.96 493.872 1273.38 493.648 1272.86C493.435 1272.34 493.131 1271.89 492.736 1271.5C492.352 1271.11 491.893 1270.8 491.36 1270.59C490.837 1270.38 490.267 1270.27 489.648 1270.27C489.019 1270.27 488.437 1270.38 487.904 1270.59C487.381 1270.8 486.923 1271.11 486.528 1271.5C486.133 1271.89 485.824 1272.34 485.6 1272.86C485.387 1273.38 485.28 1273.96 485.28 1274.57C485.28 1275.19 485.387 1275.76 485.6 1276.29C485.824 1276.81 486.133 1277.27 486.528 1277.66C486.923 1278.05 487.381 1278.34 487.904 1278.56C488.437 1278.77 489.019 1278.88 489.648 1278.88ZM497.789 1280.17V1268.97H502.157C503.139 1268.97 503.976 1269.13 504.669 1269.44C505.363 1269.75 505.896 1270.2 506.269 1270.78C506.643 1271.37 506.829 1272.07 506.829 1272.88C506.829 1273.69 506.643 1274.39 506.269 1274.97C505.896 1275.55 505.363 1275.99 504.669 1276.3C503.976 1276.61 503.139 1276.77 502.157 1276.77H498.669L499.389 1276.03V1280.17H497.789ZM505.277 1280.17L502.429 1276.11H504.141L507.021 1280.17H505.277ZM499.389 1276.19L498.669 1275.41H502.109C503.133 1275.41 503.907 1275.19 504.429 1274.75C504.963 1274.3 505.229 1273.68 505.229 1272.88C505.229 1272.08 504.963 1271.46 504.429 1271.02C503.907 1270.58 503.133 1270.37 502.109 1270.37H498.669L499.389 1269.57V1276.19ZM514.671 1274.27H520.447V1275.65H514.671V1274.27ZM514.831 1280.17H513.231V1268.97H521.135V1270.37H514.831V1280.17ZM527.787 1280.3C526.315 1280.3 525.158 1279.88 524.315 1279.04C523.473 1278.2 523.051 1276.96 523.051 1275.34V1268.97H524.651V1275.28C524.651 1276.53 524.923 1277.44 525.467 1278.01C526.022 1278.59 526.801 1278.88 527.803 1278.88C528.817 1278.88 529.595 1278.59 530.139 1278.01C530.694 1277.44 530.971 1276.53 530.971 1275.28V1268.97H532.523V1275.34C532.523 1276.96 532.102 1278.2 531.259 1279.04C530.427 1279.88 529.27 1280.3 527.787 1280.3ZM535.564 1280.17V1268.97H537.164V1278.78H543.228V1280.17H535.564ZM544.824 1280.17V1268.97H546.424V1278.78H552.488V1280.17H544.824ZM558.141 1280.17V1268.97H559.453L566.861 1278.17H566.173V1268.97H567.773V1280.17H566.461L559.053 1270.97H559.741V1280.17H558.141ZM569.189 1280.17L574.261 1268.97H575.845L580.933 1280.17H579.253L574.725 1269.87H575.365L570.837 1280.17H569.189ZM571.349 1277.37L571.781 1276.09H578.085L578.549 1277.37H571.349ZM582.364 1280.17V1268.97H583.676L588.7 1277.44H587.996L592.956 1268.97H594.268L594.284 1280.17H592.748L592.732 1271.39H593.1L588.684 1278.81H587.948L583.5 1271.39H583.9V1280.17H582.364ZM598.861 1273.81H604.621V1275.17H598.861V1273.81ZM599.005 1278.78H605.533V1280.17H597.405V1268.97H605.309V1270.37H599.005V1278.78ZM611.173 1276.45V1275.12H615.477V1276.45H611.173ZM621.883 1280.17V1268.97H626.251C627.232 1268.97 628.069 1269.13 628.763 1269.44C629.456 1269.75 629.989 1270.2 630.363 1270.78C630.736 1271.37 630.923 1272.07 630.923 1272.88C630.923 1273.69 630.736 1274.39 630.363 1274.97C629.989 1275.55 629.456 1276 628.763 1276.32C628.069 1276.63 627.232 1276.78 626.251 1276.78H622.763L623.483 1276.03V1280.17H621.883ZM623.483 1276.19L622.763 1275.39H626.203C627.227 1275.39 628 1275.17 628.523 1274.73C629.056 1274.3 629.323 1273.68 629.323 1272.88C629.323 1272.08 629.056 1271.46 628.523 1271.02C628 1270.58 627.227 1270.37 626.203 1270.37H622.763L623.483 1269.57V1276.19ZM633.033 1280.17V1268.97H637.401C638.382 1268.97 639.22 1269.13 639.913 1269.44C640.606 1269.75 641.14 1270.2 641.513 1270.78C641.886 1271.37 642.073 1272.07 642.073 1272.88C642.073 1273.69 641.886 1274.39 641.513 1274.97C641.14 1275.55 640.606 1275.99 639.913 1276.3C639.22 1276.61 638.382 1276.77 637.401 1276.77H633.913L634.633 1276.03V1280.17H633.033ZM640.521 1280.17L637.673 1276.11H639.385L642.265 1280.17H640.521ZM634.633 1276.19L633.913 1275.41H637.353C638.377 1275.41 639.15 1275.19 639.673 1274.75C640.206 1274.3 640.473 1273.68 640.473 1272.88C640.473 1272.08 640.206 1271.46 639.673 1271.02C639.15 1270.58 638.377 1270.37 637.353 1270.37H633.913L634.633 1269.57V1276.19ZM649.474 1280.3C648.621 1280.3 647.826 1280.16 647.09 1279.87C646.365 1279.58 645.735 1279.18 645.202 1278.67C644.669 1278.15 644.253 1277.54 643.954 1276.85C643.655 1276.15 643.506 1275.4 643.506 1274.57C643.506 1273.75 643.655 1273 643.954 1272.3C644.253 1271.61 644.669 1271.01 645.202 1270.49C645.735 1269.97 646.365 1269.57 647.09 1269.28C647.815 1268.99 648.61 1268.85 649.474 1268.85C650.327 1268.85 651.111 1268.99 651.826 1269.28C652.551 1269.56 653.181 1269.96 653.714 1270.48C654.258 1270.99 654.674 1271.59 654.962 1272.29C655.261 1272.98 655.41 1273.74 655.41 1274.57C655.41 1275.41 655.261 1276.17 654.962 1276.86C654.674 1277.56 654.258 1278.16 653.714 1278.69C653.181 1279.2 652.551 1279.6 651.826 1279.89C651.111 1280.16 650.327 1280.3 649.474 1280.3ZM649.474 1278.88C650.093 1278.88 650.663 1278.77 651.186 1278.56C651.719 1278.34 652.178 1278.05 652.562 1277.66C652.957 1277.27 653.261 1276.81 653.474 1276.29C653.698 1275.76 653.81 1275.19 653.81 1274.57C653.81 1273.96 653.698 1273.38 653.474 1272.86C653.261 1272.34 652.957 1271.89 652.562 1271.5C652.178 1271.11 651.719 1270.8 651.186 1270.59C650.663 1270.38 650.093 1270.27 649.474 1270.27C648.845 1270.27 648.263 1270.38 647.73 1270.59C647.207 1270.8 646.749 1271.11 646.354 1271.5C645.959 1271.89 645.65 1272.34 645.426 1272.86C645.213 1273.38 645.106 1273.96 645.106 1274.57C645.106 1275.19 645.213 1275.76 645.426 1276.29C645.65 1276.81 645.959 1277.27 646.354 1277.66C646.749 1278.05 647.207 1278.34 647.73 1278.56C648.263 1278.77 648.845 1278.88 649.474 1278.88ZM658.821 1280.3C658.16 1280.3 657.541 1280.16 656.965 1279.89C656.389 1279.61 655.92 1279.21 655.557 1278.69L656.485 1277.6C656.795 1278.02 657.141 1278.36 657.525 1278.59C657.92 1278.81 658.352 1278.93 658.821 1278.93C660.101 1278.93 660.741 1278.17 660.741 1276.65V1270.37H656.693V1268.97H662.325V1276.57C662.325 1277.82 662.027 1278.76 661.429 1279.37C660.843 1279.99 659.973 1280.3 658.821 1280.3ZM666.8 1273.81H672.56V1275.17H666.8V1273.81ZM666.944 1278.78H673.472V1280.17H665.344V1268.97H673.248V1270.37H666.944V1278.78ZM680.816 1280.3C679.962 1280.3 679.173 1280.16 678.448 1279.89C677.733 1279.6 677.109 1279.2 676.576 1278.69C676.053 1278.16 675.642 1277.56 675.344 1276.86C675.045 1276.17 674.896 1275.41 674.896 1274.57C674.896 1273.74 675.045 1272.98 675.344 1272.29C675.642 1271.59 676.058 1270.99 676.592 1270.48C677.125 1269.96 677.749 1269.56 678.464 1269.28C679.189 1268.99 679.978 1268.85 680.832 1268.85C681.696 1268.85 682.49 1269 683.216 1269.29C683.952 1269.58 684.576 1270.01 685.088 1270.59L684.048 1271.6C683.621 1271.15 683.141 1270.82 682.608 1270.61C682.074 1270.38 681.504 1270.27 680.896 1270.27C680.266 1270.27 679.68 1270.38 679.136 1270.59C678.602 1270.8 678.138 1271.1 677.744 1271.49C677.349 1271.87 677.04 1272.33 676.816 1272.86C676.602 1273.38 676.496 1273.96 676.496 1274.57C676.496 1275.19 676.602 1275.77 676.816 1276.3C677.04 1276.82 677.349 1277.28 677.744 1277.66C678.138 1278.05 678.602 1278.34 679.136 1278.56C679.68 1278.77 680.266 1278.88 680.896 1278.88C681.504 1278.88 682.074 1278.77 682.608 1278.56C683.141 1278.33 683.621 1277.99 684.048 1277.53L685.088 1278.54C684.576 1279.12 683.952 1279.56 683.216 1279.85C682.49 1280.15 681.69 1280.3 680.816 1280.3ZM689.229 1280.17V1270.37H685.389V1268.97H694.653V1270.37H690.813V1280.17H689.229ZM700.213 1280.17V1268.97H701.525L708.933 1278.17H708.245V1268.97H709.845V1280.17H708.533L701.125 1270.97H701.813V1280.17H700.213ZM711.261 1280.17L716.333 1268.97H717.917L723.005 1280.17H721.325L716.797 1269.87H717.437L712.909 1280.17H711.261ZM713.421 1277.37L713.853 1276.09H720.157L720.621 1277.37H713.421ZM724.436 1280.17V1268.97H725.748L730.772 1277.44H730.068L735.028 1268.97H736.34L736.356 1280.17H734.82L734.804 1271.39H735.172L730.756 1278.81H730.02L725.572 1271.39H725.972V1280.17H724.436ZM740.933 1273.81H746.693V1275.17H740.933V1273.81ZM741.077 1278.78H747.605V1280.17H739.477V1268.97H747.381V1270.37H741.077V1278.78ZM753.245 1276.45V1275.12H757.549V1276.45H753.245ZM768.962 1280.3C768.109 1280.3 767.32 1280.16 766.594 1279.89C765.88 1279.6 765.256 1279.2 764.722 1278.69C764.2 1278.16 763.789 1277.56 763.49 1276.86C763.192 1276.17 763.042 1275.41 763.042 1274.57C763.042 1273.74 763.192 1272.98 763.49 1272.29C763.789 1271.59 764.205 1270.99 764.738 1270.48C765.272 1269.96 765.896 1269.56 766.61 1269.28C767.336 1268.99 768.125 1268.85 768.978 1268.85C769.842 1268.85 770.637 1269 771.362 1269.29C772.098 1269.58 772.722 1270.01 773.234 1270.59L772.194 1271.6C771.768 1271.15 771.288 1270.82 770.754 1270.61C770.221 1270.38 769.65 1270.27 769.042 1270.27C768.413 1270.27 767.826 1270.38 767.282 1270.59C766.749 1270.8 766.285 1271.1 765.89 1271.49C765.496 1271.87 765.186 1272.33 764.962 1272.86C764.749 1273.38 764.642 1273.96 764.642 1274.57C764.642 1275.19 764.749 1275.77 764.962 1276.3C765.186 1276.82 765.496 1277.28 765.89 1277.66C766.285 1278.05 766.749 1278.34 767.282 1278.56C767.826 1278.77 768.413 1278.88 769.042 1278.88C769.65 1278.88 770.221 1278.77 770.754 1278.56C771.288 1278.33 771.768 1277.99 772.194 1277.53L773.234 1278.54C772.722 1279.12 772.098 1279.56 771.362 1279.85C770.637 1280.15 769.837 1280.3 768.962 1280.3ZM780.098 1280.3C779.245 1280.3 778.45 1280.16 777.714 1279.87C776.989 1279.58 776.36 1279.18 775.826 1278.67C775.293 1278.15 774.877 1277.54 774.578 1276.85C774.28 1276.15 774.13 1275.4 774.13 1274.57C774.13 1273.75 774.28 1273 774.578 1272.3C774.877 1271.61 775.293 1271.01 775.826 1270.49C776.36 1269.97 776.989 1269.57 777.714 1269.28C778.44 1268.99 779.234 1268.85 780.098 1268.85C780.952 1268.85 781.736 1268.99 782.45 1269.28C783.176 1269.56 783.805 1269.96 784.338 1270.48C784.882 1270.99 785.298 1271.59 785.586 1272.29C785.885 1272.98 786.034 1273.74 786.034 1274.57C786.034 1275.41 785.885 1276.17 785.586 1276.86C785.298 1277.56 784.882 1278.16 784.338 1278.69C783.805 1279.2 783.176 1279.6 782.45 1279.89C781.736 1280.16 780.952 1280.3 780.098 1280.3ZM780.098 1278.88C780.717 1278.88 781.288 1278.77 781.81 1278.56C782.344 1278.34 782.802 1278.05 783.186 1277.66C783.581 1277.27 783.885 1276.81 784.098 1276.29C784.322 1275.76 784.434 1275.19 784.434 1274.57C784.434 1273.96 784.322 1273.38 784.098 1272.86C783.885 1272.34 783.581 1271.89 783.186 1271.5C782.802 1271.11 782.344 1270.8 781.81 1270.59C781.288 1270.38 780.717 1270.27 780.098 1270.27C779.469 1270.27 778.888 1270.38 778.354 1270.59C777.832 1270.8 777.373 1271.11 776.978 1271.5C776.584 1271.89 776.274 1272.34 776.05 1272.86C775.837 1273.38 775.73 1273.96 775.73 1274.57C775.73 1275.19 775.837 1275.76 776.05 1276.29C776.274 1276.81 776.584 1277.27 776.978 1277.66C777.373 1278.05 777.832 1278.34 778.354 1278.56C778.888 1278.77 779.469 1278.88 780.098 1278.88ZM792.88 1280.3C791.408 1280.3 790.251 1279.88 789.408 1279.04C788.565 1278.2 788.144 1276.96 788.144 1275.34V1268.97H789.744V1275.28C789.744 1276.53 790.016 1277.44 790.56 1278.01C791.115 1278.59 791.893 1278.88 792.896 1278.88C793.909 1278.88 794.688 1278.59 795.232 1278.01C795.787 1277.44 796.064 1276.53 796.064 1275.28V1268.97H797.616V1275.34C797.616 1276.96 797.195 1278.2 796.352 1279.04C795.52 1279.88 794.363 1280.3 792.88 1280.3ZM800.656 1280.17V1268.97H801.968L809.376 1278.17H808.688V1268.97H810.288V1280.17H808.976L801.568 1270.97H802.256V1280.17H800.656ZM815.625 1280.17V1270.37H811.785V1268.97H821.049V1270.37H817.209V1280.17H815.625ZM822.551 1280.17V1268.97H826.919C827.901 1268.97 828.738 1269.13 829.431 1269.44C830.125 1269.75 830.658 1270.2 831.031 1270.78C831.405 1271.37 831.591 1272.07 831.591 1272.88C831.591 1273.69 831.405 1274.39 831.031 1274.97C830.658 1275.55 830.125 1275.99 829.431 1276.3C828.738 1276.61 827.901 1276.77 826.919 1276.77H823.431L824.151 1276.03V1280.17H822.551ZM830.039 1280.17L827.191 1276.11H828.903L831.783 1280.17H830.039ZM824.151 1276.19L823.431 1275.41H826.871C827.895 1275.41 828.669 1275.19 829.191 1274.75C829.725 1274.3 829.991 1273.68 829.991 1272.88C829.991 1272.08 829.725 1271.46 829.191 1271.02C828.669 1270.58 827.895 1270.37 826.871 1270.37H823.431L824.151 1269.57V1276.19ZM836.484 1280.17V1275.89L836.852 1276.88L832.036 1268.97H833.748L837.796 1275.65H836.868L840.932 1268.97H842.516L837.716 1276.88L838.068 1275.89V1280.17H836.484ZM841.459 1281.77L846.739 1266.7H848.131L842.851 1281.77H841.459ZM853.667 1280.3C852.814 1280.3 852.025 1280.16 851.299 1279.89C850.585 1279.6 849.961 1279.2 849.427 1278.69C848.905 1278.16 848.494 1277.56 848.195 1276.86C847.897 1276.17 847.747 1275.41 847.747 1274.57C847.747 1273.74 847.897 1272.98 848.195 1272.29C848.494 1271.59 848.91 1270.99 849.443 1270.48C849.977 1269.96 850.601 1269.56 851.315 1269.28C852.041 1268.99 852.83 1268.85 853.683 1268.85C854.547 1268.85 855.342 1269 856.067 1269.29C856.803 1269.58 857.427 1270.01 857.939 1270.59L856.899 1271.6C856.473 1271.15 855.993 1270.82 855.459 1270.61C854.926 1270.38 854.355 1270.27 853.747 1270.27C853.118 1270.27 852.531 1270.38 851.987 1270.59C851.454 1270.8 850.99 1271.1 850.595 1271.49C850.201 1271.87 849.891 1272.33 849.667 1272.86C849.454 1273.38 849.347 1273.96 849.347 1274.57C849.347 1275.19 849.454 1275.77 849.667 1276.3C849.891 1276.82 850.201 1277.28 850.595 1277.66C850.99 1278.05 851.454 1278.34 851.987 1278.56C852.531 1278.77 853.118 1278.88 853.747 1278.88C854.355 1278.88 854.926 1278.77 855.459 1278.56C855.993 1278.33 856.473 1277.99 856.899 1277.53L857.939 1278.54C857.427 1279.12 856.803 1279.56 856.067 1279.85C855.342 1280.15 854.542 1280.3 853.667 1280.3ZM859.982 1280.17V1268.97H861.582V1280.17H859.982ZM866.919 1280.17V1270.37H863.079V1268.97H872.343V1270.37H868.503V1280.17H866.919ZM876.425 1280.17V1275.89L876.793 1276.88L871.977 1268.97H873.689L877.737 1275.65H876.809L880.873 1268.97H882.457L877.657 1276.88L878.009 1275.89V1280.17H876.425ZM887.897 1280.17V1268.97H889.209L896.617 1278.17H895.929V1268.97H897.529V1280.17H896.217L888.809 1270.97H889.497V1280.17H887.897ZM898.945 1280.17L904.017 1268.97H905.601L910.689 1280.17H909.009L904.481 1269.87H905.121L900.593 1280.17H898.945ZM901.105 1277.37L901.537 1276.09H907.841L908.305 1277.37H901.105ZM912.12 1280.17V1268.97H913.432L918.456 1277.44H917.752L922.712 1268.97H924.024L924.04 1280.17H922.504L922.488 1271.39H922.856L918.44 1278.81H917.704L913.256 1271.39H913.656V1280.17H912.12ZM928.617 1273.81H934.377V1275.17H928.617V1273.81ZM928.761 1278.78H935.289V1280.17H927.161V1268.97H935.065V1270.37H928.761V1278.78ZM940.929 1276.45V1275.12H945.233V1276.45H940.929ZM951.639 1280.17V1268.97H953.239V1278.78H959.303V1280.17H951.639ZM959.203 1280.17L964.275 1268.97H965.859L970.947 1280.17H969.267L964.739 1269.87H965.379L960.851 1280.17H959.203ZM961.363 1277.37L961.795 1276.09H968.099L968.563 1277.37H961.363ZM975.642 1280.3C974.788 1280.3 973.972 1280.17 973.194 1279.92C972.415 1279.65 971.802 1279.31 971.354 1278.89L971.946 1277.65C972.372 1278.02 972.916 1278.33 973.578 1278.57C974.239 1278.82 974.927 1278.94 975.642 1278.94C976.292 1278.94 976.82 1278.87 977.226 1278.72C977.631 1278.57 977.93 1278.37 978.122 1278.11C978.314 1277.84 978.41 1277.54 978.41 1277.21C978.41 1276.83 978.282 1276.52 978.026 1276.29C977.78 1276.05 977.455 1275.86 977.05 1275.73C976.655 1275.58 976.218 1275.45 975.738 1275.34C975.258 1275.24 974.772 1275.11 974.282 1274.97C973.802 1274.82 973.359 1274.64 972.954 1274.41C972.559 1274.19 972.239 1273.89 971.994 1273.52C971.748 1273.13 971.626 1272.64 971.626 1272.05C971.626 1271.47 971.775 1270.94 972.074 1270.46C972.383 1269.97 972.852 1269.58 973.482 1269.29C974.122 1269 974.932 1268.85 975.914 1268.85C976.564 1268.85 977.21 1268.93 977.85 1269.1C978.49 1269.27 979.044 1269.52 979.514 1269.84L978.986 1271.12C978.506 1270.8 977.999 1270.57 977.466 1270.43C976.932 1270.28 976.415 1270.21 975.914 1270.21C975.284 1270.21 974.767 1270.29 974.362 1270.45C973.956 1270.61 973.658 1270.82 973.466 1271.09C973.284 1271.35 973.194 1271.65 973.194 1271.98C973.194 1272.38 973.316 1272.69 973.562 1272.93C973.818 1273.16 974.143 1273.35 974.538 1273.49C974.943 1273.62 975.386 1273.75 975.866 1273.87C976.346 1273.98 976.826 1274.1 977.306 1274.24C977.796 1274.38 978.239 1274.56 978.634 1274.78C979.039 1275.01 979.364 1275.3 979.61 1275.68C979.855 1276.05 979.978 1276.53 979.978 1277.12C979.978 1277.68 979.823 1278.21 979.514 1278.7C979.204 1279.18 978.724 1279.57 978.074 1279.87C977.434 1280.16 976.623 1280.3 975.642 1280.3ZM984.143 1280.17V1270.37H980.303V1268.97H989.567V1270.37H985.727V1280.17H984.143ZM999.766 1280.3C998.294 1280.3 997.137 1279.88 996.294 1279.04C995.452 1278.2 995.03 1276.96 995.03 1275.34V1268.97H996.63V1275.28C996.63 1276.53 996.902 1277.44 997.446 1278.01C998.001 1278.59 998.78 1278.88 999.782 1278.88C1000.8 1278.88 1001.57 1278.59 1002.12 1278.01C1002.67 1277.44 1002.95 1276.53 1002.95 1275.28V1268.97H1004.5V1275.34C1004.5 1276.96 1004.08 1278.2 1003.24 1279.04C1002.41 1279.88 1001.25 1280.3 999.766 1280.3ZM1007.54 1280.17V1268.97H1011.91C1012.89 1268.97 1013.73 1269.13 1014.42 1269.44C1015.12 1269.75 1015.65 1270.2 1016.02 1270.78C1016.4 1271.37 1016.58 1272.07 1016.58 1272.88C1016.58 1273.69 1016.4 1274.39 1016.02 1274.97C1015.65 1275.55 1015.12 1276 1014.42 1276.32C1013.73 1276.63 1012.89 1276.78 1011.91 1276.78H1008.42L1009.14 1276.03V1280.17H1007.54ZM1009.14 1276.19L1008.42 1275.39H1011.86C1012.89 1275.39 1013.66 1275.17 1014.18 1274.73C1014.72 1274.3 1014.98 1273.68 1014.98 1272.88C1014.98 1272.08 1014.72 1271.46 1014.18 1271.02C1013.66 1270.58 1012.89 1270.37 1011.86 1270.37H1008.42L1009.14 1269.57V1276.19ZM1018.69 1280.17V1268.97H1023.41C1024.61 1268.97 1025.66 1269.21 1026.57 1269.68C1027.48 1270.15 1028.19 1270.8 1028.69 1271.65C1029.21 1272.49 1029.46 1273.46 1029.46 1274.57C1029.46 1275.68 1029.21 1276.66 1028.69 1277.5C1028.19 1278.34 1027.48 1279 1026.57 1279.47C1025.66 1279.94 1024.61 1280.17 1023.41 1280.17H1018.69ZM1020.29 1278.78H1023.32C1024.25 1278.78 1025.05 1278.61 1025.72 1278.25C1026.4 1277.9 1026.93 1277.41 1027.3 1276.78C1027.67 1276.14 1027.86 1275.41 1027.86 1274.57C1027.86 1273.73 1027.67 1273 1027.3 1272.37C1026.93 1271.74 1026.4 1271.25 1025.72 1270.89C1025.05 1270.54 1024.25 1270.37 1023.32 1270.37H1020.29V1278.78ZM1029.82 1280.17L1034.89 1268.97H1036.48L1041.56 1280.17H1039.88L1035.36 1269.87H1036L1031.47 1280.17H1029.82ZM1031.98 1277.37L1032.41 1276.09H1038.72L1039.18 1277.37H1031.98ZM1044.66 1280.17V1270.37H1040.82V1268.97H1050.08V1270.37H1046.24V1280.17H1044.66ZM1053.04 1273.81H1058.8V1275.17H1053.04V1273.81ZM1053.18 1278.78H1059.71V1280.17H1051.58V1268.97H1059.49V1270.37H1053.18V1278.78ZM1062.1 1273.81C1061.8 1273.81 1061.54 1273.7 1061.33 1273.5C1061.11 1273.29 1061.01 1273.02 1061.01 1272.7C1061.01 1272.38 1061.11 1272.12 1061.33 1271.92C1061.54 1271.72 1061.8 1271.61 1062.1 1271.61C1062.38 1271.61 1062.63 1271.72 1062.83 1271.92C1063.05 1272.12 1063.15 1272.38 1063.15 1272.7C1063.15 1273.02 1063.05 1273.29 1062.83 1273.5C1062.63 1273.7 1062.38 1273.81 1062.1 1273.81ZM1062.1 1280.27C1061.8 1280.27 1061.54 1280.17 1061.33 1279.97C1061.11 1279.75 1061.01 1279.49 1061.01 1279.17C1061.01 1278.85 1061.11 1278.58 1061.33 1278.38C1061.54 1278.18 1061.8 1278.08 1062.1 1278.08C1062.38 1278.08 1062.63 1278.18 1062.83 1278.38C1063.05 1278.58 1063.15 1278.85 1063.15 1279.17C1063.15 1279.49 1063.05 1279.75 1062.83 1279.97C1062.63 1280.17 1062.38 1280.27 1062.1 1280.27ZM1069.39 1280.17V1268.97H1074.11C1075.31 1268.97 1076.36 1269.21 1077.27 1269.68C1078.18 1270.15 1078.89 1270.8 1079.39 1271.65C1079.91 1272.49 1080.16 1273.46 1080.16 1274.57C1080.16 1275.68 1079.91 1276.66 1079.39 1277.5C1078.89 1278.34 1078.18 1279 1077.27 1279.47C1076.36 1279.94 1075.31 1280.17 1074.11 1280.17H1069.39ZM1070.99 1278.78H1074.02C1074.95 1278.78 1075.75 1278.61 1076.42 1278.25C1077.1 1277.9 1077.63 1277.41 1078 1276.78C1078.38 1276.14 1078.56 1275.41 1078.56 1274.57C1078.56 1273.73 1078.38 1273 1078 1272.37C1077.63 1271.74 1077.1 1271.25 1076.42 1270.89C1075.75 1270.54 1074.95 1270.37 1074.02 1270.37H1070.99V1278.78ZM1080.52 1280.17L1085.59 1268.97H1087.18L1092.26 1280.17H1090.58L1086.06 1269.87H1086.7L1082.17 1280.17H1080.52ZM1082.68 1277.37L1083.11 1276.09H1089.42L1089.88 1277.37H1082.68ZM1095.36 1280.17V1270.37H1091.52V1268.97H1100.78V1270.37H1096.94V1280.17H1095.36ZM1103.74 1273.81H1109.5V1275.17H1103.74V1273.81ZM1103.88 1278.78H1110.41V1280.17H1102.28V1268.97H1110.19V1270.37H1103.88V1278.78ZM1115.12 1280.17L1120.19 1268.97H1121.78L1126.87 1280.17H1125.19L1120.66 1269.87H1121.3L1116.77 1280.17H1115.12ZM1117.28 1277.37L1117.71 1276.09H1124.02L1124.48 1277.37H1117.28ZM1128.3 1280.17V1268.97H1129.61L1137.02 1278.17H1136.33V1268.97H1137.93V1280.17H1136.62L1129.21 1270.97H1129.9V1280.17H1128.3ZM1141.04 1280.17V1268.97H1145.76C1146.96 1268.97 1148.01 1269.21 1148.91 1269.68C1149.83 1270.15 1150.54 1270.8 1151.04 1271.65C1151.55 1272.49 1151.81 1273.46 1151.81 1274.57C1151.81 1275.68 1151.55 1276.66 1151.04 1277.5C1150.54 1278.34 1149.83 1279 1148.91 1279.47C1148.01 1279.94 1146.96 1280.17 1145.76 1280.17H1141.04ZM1142.64 1278.78H1145.67C1146.59 1278.78 1147.39 1278.61 1148.07 1278.25C1148.75 1277.9 1149.28 1277.41 1149.65 1276.78C1150.02 1276.14 1150.21 1275.41 1150.21 1274.57C1150.21 1273.73 1150.02 1273 1149.65 1272.37C1149.28 1271.74 1148.75 1271.25 1148.07 1270.89C1147.39 1270.54 1146.59 1270.37 1145.67 1270.37H1142.64V1278.78ZM1160.3 1280.17V1270.37H1156.46V1268.97H1165.73V1270.37H1161.89V1280.17H1160.3ZM1167.23 1280.17V1268.97H1168.83V1280.17H1167.23ZM1171.94 1280.17V1268.97H1173.25L1178.28 1277.44H1177.57L1182.53 1268.97H1183.85L1183.86 1280.17H1182.33L1182.31 1271.39H1182.68L1178.26 1278.81H1177.53L1173.08 1271.39H1173.48V1280.17H1171.94ZM1188.44 1273.81H1194.2V1275.17H1188.44V1273.81ZM1188.58 1278.78H1195.11V1280.17H1186.98V1268.97H1194.89V1270.37H1188.58V1278.78Z" fill="black"/>
<rect x="140" y="872" width="377" height="239.15" rx="20" fill="#D9D9D9"/>
<rect x="906" y="618.152" width="395.753" height="239.152" rx="5" fill="#D9D9D9"/>
<path d="M907.256 856.655L1300.5 619.452" stroke="black"/>
<path d="M1300.5 856.655L907.256 619.452" stroke="black"/>
<rect x="906" y="364" width="395.753" height="239.152" rx="5" fill="#D9D9D9"/>
<path d="M907.256 602.503L1300.5 365.3" stroke="black"/>
<path d="M1300.5 602.503L907.256 365.3" stroke="black"/>
<path d="M146 1108.44L511 880" stroke="black"/>
<path d="M511 1108.44L146 880" stroke="black"/>
<rect x="532" y="872" width="376" height="239.15" rx="20" fill="#D9D9D9"/>
<path d="M538 1108.44L903 880" stroke="black"/>
<path d="M903 1108.44L538 880" stroke="black"/>
<path d="M538 1108.82L903 880.381" stroke="black"/>
<path d="M903 1108.82L538 880.381" stroke="black"/>
<rect x="923" y="872" width="377" height="239.15" rx="20" fill="#D9D9D9"/>
<rect x="138" y="364" width="753" height="493" rx="5" fill="#D9D9D9"/>
<path d="M140.39 855.66L888.609 366.679" stroke="black"/>
<path d="M888.609 855.66L140.391 366.679" stroke="black"/>
<g filter="url(#filter0_d_1_25)">
<rect x="178" y="731.19" width="206" height="76.0712" rx="5" fill="#D8D5D5"/>
<rect x="178.5" y="731.69" width="205" height="75.0712" rx="4.5" stroke="black"/>
</g>
<path d="M929 1108.44L1294 880" stroke="black"/>
<path d="M1294 1108.44L929 880" stroke="black"/>
</g>
<defs>
<filter id="filter0_d_1_25" x="174" y="731.19" width="214" height="84.0712" filterUnits="userSpaceOnUse" color-interpolation-filters="sRGB">
<feFlood flood-opacity="0" result="BackgroundImageFix"/>
<feColorMatrix in="SourceAlpha" type="matrix" values="0 0 0 0 0 0 0 0 0 0 0 0 0 0 0 0 0 0 127 0" result="hardAlpha"/>
<feOffset dy="4"/>
<feGaussianBlur stdDeviation="2"/>
<feComposite in2="hardAlpha" operator="out"/>
<feColorMatrix type="matrix" values="0 0 0 0 0 0 0 0 0 0 0 0 0 0 0 0 0 0 0.25 0"/>
<feBlend mode="normal" in2="BackgroundImageFix" result="effect1_dropShadow_1_25"/>
<feBlend mode="normal" in="SourceGraphic" in2="effect1_dropShadow_1_25" result="shape"/>
</filter>
<clipPath id="clip0_1_25">
<rect width="1440" height="1389" fill="white"/>
</clipPath>
</defs>
</svg>
